<svg width="423" height="340" viewBox="0 0 423 340" fill="none" xmlns="http://www.w3.org/2000/svg">
<path d="M347 21.334C342.136 21.8844 335.644 22.2328 330.69 22.4047C329.136 22.4596 329.886 21.9609 328.805 21.9815C326.712 22.0212 324.779 22.4256 322.7 22.4436C322.006 22.4482 322.785 21.692 322.07 21.7109C320.72 21.7493 319.404 21.8416 318.071 21.9613C315.649 22.1768 313.24 22.5477 310.694 22.8551C299.221 24.2608 287.798 26.8022 276.304 29.5075C268.725 31.288 261.321 33.313 254.055 36.0249C248.937 37.911 242.828 40.2165 237.548 43.005C236.643 43.4807 235.755 43.9729 234.899 44.476C234.224 44.8739 234.915 45.1726 234.807 45.2857C233.103 47.0531 233.227 45.6335 231.805 46.2351C226.18 48.6272 220.287 52.0568 215.39 55.3334C213.306 56.7322 216.062 56.4078 213.57 57.1761C213.398 57.2307 213.608 56.3636 212.989 56.669C211.583 57.3625 209.135 59.0336 208.091 59.6391C206.074 60.8039 205.746 61.0215 203.892 62.2075C201.346 63.8313 198.185 65.5308 195.571 67.4502C195.019 67.8583 196.133 67.8845 195.277 68.59C194.949 68.8613 194.359 69.2798 193.739 69.6947C192.75 70.3562 191.688 71.0286 191.147 71.2989C190.28 71.7281 190.321 71.0816 190.116 71.0854C188.375 71.1126 186.549 74.1886 186.254 74.4759C180.641 79.6634 175.302 83.5943 172.608 89.5815C172.129 90.6673 171.747 91.814 171.356 93.108C170.428 96.0587 171.492 100.071 172.658 103.763C174.543 109.589 176.433 114.777 178.708 120.634C178.899 121.122 179.2 120.616 179.466 120.736C179.537 120.76 179.601 120.825 179.657 120.962C182.501 127.696 188.295 133.834 193.876 140.004C194.445 140.626 193.205 140.35 193.747 140.999C197.077 144.975 202.32 151.479 206.559 151.507C207.373 152.315 208.244 153.184 209.11 154.08C210.92 155.957 212.727 157.943 214 159.73C215.209 161.43 213.28 160.555 215.294 162.094C215.748 162.443 215.663 161.474 216.31 162.032C219.032 164.384 221.658 167.319 224.355 169.689C224.901 170.167 225.18 169.638 225.396 169.718C227.196 170.414 228.156 173.5 228.495 174.037C231.136 178.141 233.611 180.657 236.207 184.482C236.799 185.376 236.723 183.887 237.324 184.755C238.986 187.22 240.584 189.95 241.501 193.288C242.099 195.287 241.662 197.677 240.822 199.195C239.994 200.766 238.98 201.823 238.004 202.73C237.039 203.586 237.418 202.295 236.942 202.666C234.874 204.187 235.211 205.426 233.206 206.652C232.788 206.903 232.669 206.296 232.562 206.301C230.889 206.369 230.762 208.147 230.499 208.381C230.489 208.389 230.48 208.398 230.471 208.406C226.986 211.448 223.755 211.742 220.101 214.001C219.658 214.271 221.024 214.328 219.753 215.05C212.351 219.231 204.142 222.532 196.223 225.242C195.093 225.627 193.975 226.024 192.869 226.432C191.526 226.934 192.244 226.038 192.136 226.014C190.365 225.693 190.065 227.344 189.667 227.59C186.495 229.511 182.876 230.139 181.371 232.762C177.856 234.462 174.382 236.252 170.885 238.038C160.842 243.283 151.188 249.592 141.07 254.946C140.655 255.169 140.257 255.379 139.843 255.599C139.668 255.695 139.599 254.938 139.25 255.131C135.048 257.476 136.383 257.845 134.605 260.691C134.168 261.397 131.354 261.627 131.115 261.684C130.25 261.844 130.254 260.562 130.001 260.663C127.904 261.559 130.277 263.851 128.156 265.734C128.085 265.79 127.959 265.087 127.74 265.203C127.053 265.566 126.669 266.249 125.989 266.603C124.431 267.415 122.861 266.698 121.667 269.216C121.621 269.314 121.745 269.47 121.886 269.692C122.212 270.197 122.623 271.035 121.313 272.29C120.553 273.004 117.399 276.361 116.43 277.232C115.461 278.093 115.624 277.034 115.543 277.084C112.582 279.101 113.242 277.907 111.183 278.403C109.129 278.909 111.531 280.438 111.283 281.176C111.033 281.913 108.833 283.378 108.243 283.699C107.653 284.017 107.89 283.175 107.42 283.508C104.319 285.733 107.381 285.652 106.907 286.862C105.806 289.716 102.774 290.051 100.912 291.943C100.411 292.453 101.147 292.313 100.772 292.829C100.676 292.96 100.581 293.086 100.485 293.207C99.0835 294.995 97.7407 295.789 96.4967 298.241C96.2828 298.662 95.8476 301.232 94.2107 301.867C93.9779 301.954 93.928 301.164 93.191 301.94C92.0749 303.114 90.2844 305.354 89.4347 306.867C88.8104 307.98 90.3396 307.282 89.2131 308.436C88.7185 308.944 89.0441 307.59 88.1477 308.575C87.2341 309.569 85.4087 312.408 84.7548 313.532C84.0963 314.645 85.0199 314.376 85.0024 314.488C84.8904 315.138 83.9325 317.423 83.8423 317.6C81.6095 321.606 79.8478 325.493 77.9874 329.698C77.6727 330.341 77.4654 331.127 77.3033 331.998C77.0948 332.904 77.1641 333.724 76.5073 335.187C76.4148 335.356 76.3443 335.477 76.224 335.657C76.1596 335.753 76.0915 335.846 76.0112 335.941C75.8992 336.068 75.7882 336.206 75.5036 336.386C75.3157 336.5 75.0347 336.622 74.6743 336.624C74.2728 336.637 73.8313 336.425 73.6128 336.207C73.2719 335.878 73.1926 335.583 73.1478 335.467C73.0442 335.141 73.0343 334.985 73.009 334.778C72.9486 334.095 72.9782 333.553 73.0006 332.987C73.0542 331.889 73.1463 330.814 73.2306 329.746C73.4004 327.61 73.5712 325.475 73.5867 323.356C73.5879 322.538 72.8861 323.061 72.8792 322.936C72.6842 320.809 73.7387 321.7 74.4956 321.184C74.6905 321.039 74.8559 320.798 74.9657 320.368C73.5999 320.728 73.7618 319.483 73.6611 317.394C73.6165 316.377 73.0647 316.909 73.0121 316.816C72.2516 315.276 73.3909 314.283 73.6244 314.041C74.4891 313.126 73.6644 311.972 74.264 311.371C74.8613 310.773 75.4603 312.367 75.6786 310.417C75.2534 309.81 73.7864 311.107 73.7633 309.59C73.6279 303.774 76.8605 293.615 78.0376 289.263C79.187 284.904 79.4651 283.455 80.2572 280.965C81.6796 276.451 80.3598 277.887 80.5341 274.997C80.5522 274.517 80.6315 274.132 80.739 273.922C81.3008 272.63 82.792 273.858 83.2658 273.581C83.8399 273.263 83.4099 272.723 83.7882 272.272C84.1661 271.831 84.2781 272.977 84.6281 271.832C84.9558 270.697 84.9385 267.298 84.5707 266.724C83.7606 265.525 82.1593 266.627 83.5561 263.619C83.6381 263.448 84.0395 264.22 84.3235 263.558C85.9419 259.755 87.6015 255.92 89.0978 252.102C89.6759 250.621 90.2723 249.161 90.9124 247.734C91.232 247.026 91.6466 247.913 91.8399 247.506C93.905 243.284 92.1849 244.489 92.0749 241.502C92.5862 242.007 93.1457 242.158 93.7194 241.996C94.005 241.92 94.3005 241.752 94.6009 241.533C94.7489 241.427 94.906 241.295 95.0574 241.176C95.196 241.066 95.411 240.899 95.416 240.962C95.529 240.908 95.6127 240.883 95.6674 240.877C95.6912 240.876 95.6987 240.887 95.6577 240.903C95.6061 240.918 95.5002 240.948 95.3055 240.88C95.114 240.811 94.9916 240.666 94.9511 240.598C94.9051 240.521 94.9104 240.52 94.9081 240.534C94.9101 240.568 94.9154 240.708 94.9086 240.836C94.6867 242.637 95.3821 242.559 95.5663 244.017C95.6166 244.459 94.6761 245.769 94.9291 246.128C95.7444 247.35 97.4543 246.4 95.755 249.756C95.6785 249.9 95.2498 249.206 95.029 249.719C93.5814 253.039 94.5533 253.86 93.3323 257.553C93.0365 258.448 92.5816 259.529 92.0824 260.662C90.9732 263.174 89.6455 266.217 88.8619 268.477C87.0278 267.839 86.4966 271.085 87.352 272.772C86.5981 274.914 85.8727 277.291 84.7265 279.304C84.6725 279.398 84.6204 279.465 84.5707 279.512C84.2742 279.77 84.0342 279.284 83.9539 279.331C82.4787 280.219 83.3756 281.635 83.2841 282.064C82.393 286.046 81.6349 289.514 81.5141 293.491C81.481 294.438 81.4252 295.402 81.3685 296.404C81.356 296.582 82.6044 297.266 81.2374 298.374C81.1452 298.431 81.0819 296.609 80.2873 298.939C79.4829 301.285 76.927 305.046 76.2196 308.28C76.1346 308.67 76.1493 309.43 76.0247 310.228C75.9112 310.997 75.6866 311.802 75.0465 312.406C74.8736 312.567 74.5732 312.234 74.2778 312.458C73.3321 313.209 74.5038 314.078 73.1028 314.92C71.6912 315.769 70.3331 318.079 70.5098 321.456C70.5119 321.563 71.4266 322.537 71.193 323.556C71.1041 323.942 70.9928 324.365 70.8657 324.804C70.4529 326.195 70.1389 327.859 70.1762 329.187C70.2039 330.017 70.8589 329.456 70.8755 329.599C71.0663 331.283 71.4335 332.718 71.8889 334.188C71.8728 334.093 71.6944 333.925 71.6161 333.918C71.5371 333.898 71.554 333.916 71.5929 333.912C71.6777 333.909 71.8381 333.865 71.9899 333.802C72.3006 333.673 72.6225 333.472 72.8937 333.244C74.7195 331.661 76.4925 329.838 78.6211 327.671C79.3823 326.884 80.8615 323.933 82.8899 322.928C85.1096 321.846 85.69 325.827 88.9439 321.649C90.261 319.99 89.5089 315.028 93.8927 314.142C93.8933 314.141 93.8938 314.141 93.8944 314.14C99.299 308.9 105.787 306.097 111.961 301.796C112.238 301.604 112.624 300.065 113.342 299.702C114.405 299.166 115.233 299.351 116.006 298.996C119.233 297.534 121.976 295.724 125.153 294.442C125.65 294.242 125.905 294.243 126.133 294.275C126.476 294.337 126.74 294.465 127.617 294.184C129.089 293.712 129.823 292.675 131.915 292.32C133.498 292.053 135.498 292.952 137.542 292.399C137.108 290.965 138.478 290.506 140.745 289.245C141.18 289.002 140.504 288.698 140.701 288.558C141.495 287.977 142.468 288.074 143.208 287.484C143.389 287.342 143.218 286.86 143.355 286.717C144.514 285.478 147.26 285.662 147.736 285.694C148.871 285.77 149.481 285.449 150.1 285.153C150.103 285.151 150.113 285.148 150.117 285.147C150.482 284.986 150.869 284.829 151.352 284.784C152.646 284.661 150.984 285.618 152.432 285.32C155.45 284.697 159.162 283.411 162.136 282.508C163.326 282.144 162.313 281.746 162.478 281.678C164.876 280.751 167.57 280.697 168.547 278.99C171.255 281.851 169.931 278.218 173.663 277.874C173.956 277.849 174.765 279.345 173.769 279.884C172.775 280.423 171.016 280.394 169.653 281.194C169.327 281.383 167.788 283.468 167.541 283.642C165.634 284.989 164.607 282.713 164.454 282.617C162.741 281.603 160.81 283.966 160.208 284.281C157.452 285.713 154.871 286.194 152.577 287.37C151.881 287.724 151.585 288.252 151.358 288.752L151.465 288.713C151.2 289.318 151.015 289.885 150.336 290.115C146.157 291.533 143.93 289.953 140.711 293.236C140.018 293.936 141.462 295.305 137.971 295.085C137.751 295.072 135.086 294.673 134.061 295.89C133.931 296.044 134.109 296.53 133.909 296.647C132.564 297.418 131.463 297.365 129.96 298.092C129.285 298.418 128.562 298.779 127.791 299.122L128.107 299.002C127.237 299.468 126.312 299.92 125.353 300.242C124.311 300.59 122.629 300.31 122.046 300.326C120.397 300.351 119.446 302.066 118.25 301.749C117.034 301.439 118.121 299.47 115.654 300.134C116.19 301.371 116.639 302.693 117.136 303.959C112.385 306.387 107.618 308.671 103.266 311.718C102.73 312.097 103.691 312.312 103.132 312.734C100.922 314.406 98.7008 315.512 96.6584 317.395C96.5247 317.518 96.3925 317.643 96.2617 317.771C94.517 319.471 93.0357 321.802 91.3481 323.636C89.1686 323.55 86.839 326.517 84.9029 328.369C84.2177 329.022 83.9679 328.689 83.4065 329.096C81.3168 330.641 83.1387 330.671 82.8253 331.334C81.4941 334.176 79.1041 332.364 76.506 335.248C76.445 335.313 76.3025 335.887 76.1 336.565C75.423 337.926 73.9846 339.287 73.0225 339.541C72.2947 339.752 71.3026 340.043 69.6251 339.527C67.8663 339.05 66.3744 337.021 66.155 336.004C65.8875 335.331 66.9918 336.053 66.7306 334.879C66.136 331.994 66.2477 329.855 66.1167 326.431C66.1006 325.861 65.887 324.801 65.9971 323.66C66.0256 323.018 66.1725 322.34 66.6379 321.769C66.7786 321.596 67.2887 321.81 67.3514 321.659C68.4375 318.871 66.767 318.444 66.5541 316.578C66.3275 314.692 68.1996 312.075 68.7093 311.606C69.9925 310.348 68.7347 312.86 68.8147 312.961C69.5694 314.155 69.8861 312.099 70.4852 310.582C72.1303 310.871 72.7971 308.803 71.1279 309.016C70.9364 309.047 70.6522 310.298 70.4852 310.582C70.0013 309.773 69.864 308.817 70.1106 307.821C70.3843 306.639 71.2243 305.467 72.5983 304.503C73.7299 303.714 74.0654 305.051 75.2017 301.695C75.6954 300.185 74.404 300.295 74.6115 298.938C74.9126 296.877 75.8824 294.903 76.2983 292.939C76.5295 291.763 76.7179 290.551 76.785 289.394C76.8627 288.12 76.0992 289.291 76.1351 288.407C76.2436 286.033 77.0492 283.933 77.5354 281.382C77.5818 281.146 76.7794 281.524 77.0107 280.728C77.4298 279.307 77.9737 277.938 78.6294 276.64C80.0128 273.902 81.3115 270.403 82.5512 266.437C83.1919 264.374 84.0211 260.842 84.9641 258.095C85.1669 257.5 85.3728 256.938 85.5634 256.462C87.3512 252.007 90.3387 246.889 91.1546 243.207C91.4136 242.028 91.2888 241.595 91.105 241.314C90.9129 241.057 90.6685 240.855 90.466 240.658C90.4029 240.617 90.3452 240.611 90.3042 240.736C90.2927 240.913 90.1461 241.119 90.5528 242.303C90.8406 242.992 91.4014 244.186 93.1216 245.096C94.9004 245.946 96.1639 245.676 96.8645 245.515C98.0697 245.149 98.1384 244.927 98.2769 244.834C98.8977 244.339 98.9778 244.15 99.0741 244.02C99.1491 243.899 99.154 243.853 99.143 243.834C99.1154 243.801 99.0191 243.868 98.9139 243.955C98.7012 244.131 98.4397 244.394 98.1982 244.632C97.7116 245.116 97.2854 245.527 97.1463 245.645C97.1311 245.634 97.799 243.729 97.0561 244.573C96.1524 244.88 97.1506 245.629 97.1463 245.645C96.8695 245.831 95.1843 249.899 95.0227 250.796C94.9285 251.272 95.6071 251.225 95.5468 251.471C95.3347 252.33 95.1183 253.192 94.8963 254.055C93.4832 259.373 91.6135 264.083 90.0244 268.706C89.9842 268.8 89.3554 268.458 89.2688 268.683C88.2896 271.204 88.3755 273.174 88.5082 275.212C88.5158 275.87 88.5028 276.517 88.4669 277.171C88.2905 280.38 87.5438 282.585 85.9655 284.006C85.5802 286.2 84.3087 289.166 83.5793 290.861C82.8491 292.554 84.119 293.116 84.1096 293.274C83.8484 298.302 82.484 300.915 81.5059 305.885C81.0291 308.244 80.6023 312.953 80.6237 315.411C80.6255 317.357 80.2823 318.514 80.5469 320.186C80.584 320.409 81.1791 320.156 81.2054 320.223C81.3027 320.438 81.3679 320.609 81.406 320.748C81.6912 322.675 80.4721 321.545 80.251 322.084C79.2698 324.022 78.6839 324.967 78.9333 327.845C78.9898 328.503 80.9739 330.537 81.0374 331.623C81.1268 332.983 80.3689 332.574 80.5462 333.696C80.5545 333.733 80.6762 333.745 80.7953 333.801C80.8547 333.825 80.914 333.858 80.9559 333.862C80.9767 333.862 80.9932 333.852 80.9982 333.799C80.9989 333.735 81.0066 333.658 80.9127 333.277C80.8617 333.081 80.7885 332.819 80.6249 332.435C80.5128 332.174 80.3472 331.829 80.069 331.414C79.929 331.206 79.7584 330.977 79.5428 330.734C79.4302 330.608 79.3318 330.503 79.1692 330.347C78.985 330.172 78.7752 329.992 78.5369 329.817C77.617 329.104 76.0425 328.519 74.6685 328.547C73.4311 328.546 72.4133 328.899 71.7289 329.249C70.9693 329.652 70.7831 329.841 70.5249 330.045C70.2884 330.245 70.115 330.42 69.977 330.57C69.8357 330.724 69.7445 330.839 69.692 330.906C69.6325 330.983 69.5837 331.05 69.5427 331.109C69.4621 331.224 69.4043 331.319 69.3769 331.367C69.3233 331.461 69.3057 331.503 69.3056 331.509C69.0217 332.099 69.0132 332.292 68.9979 332.356C68.9917 332.414 69.0168 332.333 69.0436 332.2C69.1003 331.924 69.1727 331.436 69.2683 330.872C69.4657 329.735 69.746 328.235 70.4858 326.54C71.3755 324.59 72.4255 321.935 73.5102 319.526C73.8024 318.878 72.7378 319.399 73.1587 318.446C75.1345 313.988 77.8508 309.483 80.6557 305.901C81.3522 305.015 81.3959 305.894 81.6593 305.78C83.2542 305.083 83.3387 302.585 83.5086 302.303C86.898 296.642 90.7221 292.944 94.5936 288.285C95.5642 287.121 96.5404 285.901 97.5218 284.576C97.7813 284.216 98.9273 280.656 100.886 280.342C101.019 280.317 102.978 280.039 103.211 278.46C103.226 278.362 102.104 278.623 103.25 277.443C104.396 276.264 105.847 274.004 107.917 272.836C108.571 272.465 110.654 272.1 111.372 269.85C111.41 269.701 112.023 265.702 114.003 265.959C114.327 266.005 115.384 267.326 116.57 264.889C116.748 264.521 116.226 264.672 116.367 264.217C116.406 264.095 116.492 263.93 116.648 263.704C117.802 262.033 120.023 260.487 121.425 258.216C121.659 257.823 122.358 255.67 124.121 255.349C124.394 255.3 124.398 256.025 125.066 255.56C128.247 253.353 131.281 250.768 134.609 249.039C135.785 248.43 135.728 249.555 137 249.02C137.059 248.995 137.121 248.968 137.186 248.939C138.482 248.374 140.721 247.175 141.64 246.124C142.605 245.022 140.532 244.612 142.257 243.388C149.808 238.075 157.943 234.07 166.407 229.754C166.464 229.725 166.515 229.699 166.561 229.673C167.512 229.151 166.463 229.162 168.126 228.287C174.44 224.985 185.574 218.264 192.509 216.837C192.629 216.81 192.743 216.785 192.853 216.763C197.281 215.915 191.984 218.734 195.607 217.663C197.396 217.129 198.602 214.806 198.988 214.587C202.775 212.424 205.808 211.911 209.183 210.061C209.877 209.678 208.883 209.394 209.473 209.075C211.481 207.98 213.745 207.171 215.601 206.091C216.432 205.604 216.022 205.234 216.806 204.839C218.671 203.882 220.343 203.12 222.276 202.419C222.455 202.353 221.785 203.584 223.07 202.75C223.743 202.309 224.489 201.855 225.237 201.37C226.945 200.247 228.743 199.055 229.893 197.641C230.37 197.024 229.675 196.093 231.158 195.753C231.307 195.719 231.592 196.002 231.847 196.056C232.077 196.135 232.404 195.843 232.101 195.171C232.06 195.106 231.92 194.751 231.596 194.843C231.267 194.879 230.911 195.78 231.059 196.269C230.945 195.934 230.902 195.534 231.039 195.115C231.193 194.722 231.868 193.332 231.262 192.59C231.177 192.495 230.845 193.229 230.433 192.596C228.978 190.372 227.233 187.82 225.147 185.527C224.586 184.915 224.842 186.291 224.02 185.369C221.771 182.855 218.989 179.523 216.759 176.878C215.94 175.905 216.943 176.161 216.923 176.053C216.592 174.296 215.024 174.571 214.626 174.272C212.141 172.383 210.896 170.277 208.724 168.376C208.125 167.85 208.091 168.693 207.938 168.622C206.386 167.869 208.045 167.916 207.386 167.101C205.83 165.175 203.883 163.291 201.986 161.556C201.643 161.242 201.299 160.933 200.958 160.628C200.156 159.915 200.536 161.269 199.822 160.625C195.584 156.817 191.093 152.708 187.142 148.36C186.401 147.54 187.289 147.619 187.212 147.367C186.696 145.633 184.187 144.851 183.72 144.539C181.608 143.142 181.292 142.088 179.728 140.498C175.913 136.534 171.695 131.532 169.078 124.686C167.202 119.587 165.225 114.518 163.612 109.737C161.891 104.13 159.525 97.9166 161.957 90.0805C163.926 83.5275 168.682 77.0701 173.744 72.2879C174.335 71.7174 173.218 71.7485 173.73 71.2439C178.1 67.0228 182.8 63.6674 187.508 60.4848C189.961 58.8336 192.437 57.1734 194.888 55.4808C195.467 55.0832 194.231 55.0479 195.152 54.3869C197.032 53.0318 199.511 51.4811 201.607 50.4171C202.631 49.8959 201.66 51.2285 202.683 50.694C205.057 49.4581 207.51 47.9849 209.79 46.4516C210.76 45.798 208.88 46.1047 210.171 45.304C217.341 40.8565 224.497 36.551 232.356 32.9931C234.148 32.1847 235.974 31.4212 237.838 30.7138C238.528 30.4527 239.732 31.4983 241.022 30.589C240.957 30.1708 240.75 29.7391 240.614 29.3229C251.088 24.2178 262.442 20.8617 273.448 18.2849C277.038 17.4275 280.65 16.5677 284.288 15.7112C284.907 15.5655 283.655 15.0673 284.855 14.7815C291.796 13.1353 298.588 11.4044 306.053 10.8981C306.797 10.8495 306.646 12.253 308.752 11.7034C309.122 11.5992 312.334 10.9358 313.144 10.5379C313.254 10.4785 312.57 9.9245 313.627 9.76741C314.644 9.61987 315.68 9.48688 316.719 9.37255C321.751 8.81831 326.923 8.44885 331.916 8.30919C332.87 8.28465 331.922 9.0551 332.605 9.04343C337.5 8.95158 342.714 7.99155 347.45 8.29051C350.605 8.50162 349.533 9.74869 351.251 10.8084C351.501 10.9552 353.429 10.8925 353.568 11.5651C353.878 13.2456 353.022 15.1303 353.475 16.9168C353.529 17.1088 354.15 17.0776 354.554 17.1331C354.753 17.1606 354.872 17.2097 354.876 17.3086C354.887 17.4081 354.847 17.5545 354.532 17.7939C354.471 17.8505 352.74 18.2266 352.303 18.5712C352.01 18.8062 352.597 19.4611 351.982 19.7745C351.38 20.0878 350.648 19.5544 349.615 19.9507C348.588 20.3528 349.101 21.0953 347 21.334ZM80.3886 298.535C79.4088 300.054 81.7068 300.765 81.5086 298.881C81.4965 298.789 80.4376 298.456 80.3886 298.535ZM106.771 307.215C104.346 307.477 103.949 309.608 105.673 309.458C107.384 309.325 107.502 307.141 106.771 307.215ZM126.62 296.102C123.918 296.351 124.935 299.613 127.146 297.915C127.275 297.818 126.775 296.089 126.62 296.102ZM343.618 11.6501C343.639 11.6799 345.029 11.6061 345.053 11.5732C345.732 10.7601 342.97 10.9063 343.618 11.6501ZM147.8 287.538C146.878 287.399 144.877 288.723 146.024 288.899C146.948 289.041 148.95 287.711 147.8 287.538ZM99.9722 291.245C100.016 291.249 100.68 290.512 100.512 290.398C99.9742 290.028 99.2245 291.202 99.9722 291.245ZM184.908 276.113C179.33 277.45 175.208 275.701 181.359 274.349C182.472 274.108 179.226 275.85 180.688 275.717C183.357 275.473 184.613 273.323 187.47 273.568C187.983 273.613 185.223 276.041 184.899 276.119C184.902 276.117 184.905 276.115 184.908 276.113ZM77.3771 298.911C77.3384 298.937 77.0407 300.273 77.0663 300.311C77.6674 301.181 78.264 298.501 77.3771 298.911ZM142.547 253.073C142.646 253.087 145.353 251.439 145.405 251.335C146.138 249.397 140.654 252.729 142.547 253.073ZM88.7964 268.514C89.0889 270.163 88.6407 271.913 87.355 272.766C87.8646 271.355 88.3125 269.925 88.7964 268.514Z" fill="black"/>
</svg>
