<svg width="48" height="48" viewBox="0 0 48 48" fill="none" xmlns="http://www.w3.org/2000/svg">
<g opacity="0.6">
<circle cx="24" cy="24" r="24" fill="#333333"/>
<path fill-rule="evenodd" clip-rule="evenodd" d="M18.91 16C19.8457 15.9999 20.7593 16.2848 21.5291 16.8168C22.2989 17.3488 22.8885 18.1025 23.2194 18.9778C23.5502 19.8531 23.6067 20.8084 23.3812 21.7166C23.1558 22.6248 22.6591 23.4427 21.9573 24.0617C22.6591 24.6806 23.1558 25.4986 23.3812 26.4067C23.6067 27.3149 23.5502 28.2702 23.2194 29.1455C22.8885 30.0208 22.2989 30.7746 21.5291 31.3065C20.7593 31.8385 19.8457 32.1234 18.91 32.1233H14.3033C13.6925 32.1233 13.1066 31.8807 12.6746 31.4487C12.2427 31.0167 12 30.4309 12 29.82V18.3033C12 17.6925 12.2427 17.1066 12.6746 16.6746C13.1066 16.2427 13.6925 16 14.3033 16H18.91ZM29.8508 20.6067C32.8532 20.6067 35.0333 23.3338 35.0333 26.365C35.0333 26.6471 34.9297 26.9193 34.7423 27.1301C34.5548 27.3409 34.2966 27.4756 34.0164 27.5086L33.8817 27.5167H27.1329C27.5452 28.9263 28.6911 29.82 29.8508 29.82C31.0946 29.82 31.7995 29.2315 32.4306 28.4956C32.6291 28.2634 32.9117 28.1197 33.2163 28.0959C33.5208 28.0722 33.8223 28.1704 34.0544 28.3689C34.2866 28.5674 34.4303 28.8501 34.4541 29.1546C34.4778 29.4591 34.3796 29.7606 34.1811 29.9927L34.0579 30.1333L33.7941 30.4166C32.9626 31.2711 31.7465 32.1233 29.8508 32.1233C26.8484 32.1233 24.6683 29.3962 24.6683 26.365C24.6683 23.3338 26.8484 20.6067 29.8508 20.6067ZM18.91 25.2133H14.3033V29.82H18.91C19.5077 29.8227 20.083 29.5929 20.5144 29.1792C20.9459 28.7656 21.1996 28.2004 21.222 27.6031C21.2444 27.0058 21.0338 26.4232 20.6346 25.9784C20.2354 25.5335 19.679 25.2612 19.0827 25.2191L18.91 25.2133ZM29.8508 22.91C28.6911 22.91 27.5452 23.8037 27.1329 25.2133H32.5688C32.1565 23.8037 31.0106 22.91 29.8508 22.91ZM18.91 18.3033H14.3033V22.91H18.91C19.5209 22.91 20.1067 22.6673 20.5387 22.2354C20.9707 21.8034 21.2133 21.2175 21.2133 20.6067C21.2133 19.9958 20.9707 19.4099 20.5387 18.978C20.1067 18.546 19.5209 18.3033 18.91 18.3033ZM31.5783 17.1517C31.8838 17.1517 32.1767 17.273 32.3927 17.489C32.6087 17.705 32.73 17.9979 32.73 18.3033C32.73 18.6088 32.6087 18.9017 32.3927 19.1177C32.1767 19.3337 31.8838 19.455 31.5783 19.455H28.1233C27.8179 19.455 27.525 19.3337 27.309 19.1177C27.093 18.9017 26.9717 18.6088 26.9717 18.3033C26.9717 17.9979 27.093 17.705 27.309 17.489C27.525 17.273 27.8179 17.1517 28.1233 17.1517H31.5783Z" fill="white"/>
</g>
</svg>
