<svg width="49" height="48" viewBox="0 0 49 48" fill="none" xmlns="http://www.w3.org/2000/svg">
<g opacity="0.6">
<circle cx="24.1818" cy="24" r="24" fill="#333333"/>
<path d="M17.6354 17.2936C17.3476 16.5589 17.3591 15.7195 17.4869 14.9514C18.3666 15.2157 19.1929 15.6328 19.9281 16.1835C20.2505 16.4299 20.6731 16.5094 21.0669 16.3908C22.0773 16.0877 23.1269 15.9356 24.1818 15.9394C25.2884 15.9394 26.3397 16.1006 27.2943 16.3896C27.6882 16.5094 28.1108 16.4288 28.432 16.1824C29.1669 15.6318 29.9928 15.2147 30.8721 14.9502C30.9999 15.7183 31.0103 16.5578 30.7247 17.2913C30.552 17.7335 30.6383 18.2424 30.9642 18.604C31.7979 19.5287 32.2424 20.5915 32.2424 21.697C32.2424 24.1313 29.9739 26.5184 26.3305 27.245C25.4185 27.4269 25.0627 28.575 25.7605 29.2325C26.2085 29.6539 26.4848 30.2481 26.4848 30.9091V34.3636C26.4848 34.669 26.6061 34.9619 26.8221 35.1779C27.038 35.3938 27.3309 35.5151 27.6363 35.5151C27.9417 35.5151 28.2346 35.3938 28.4506 35.1779C28.6665 34.9619 28.7879 34.669 28.7879 34.3636V30.9091C28.7879 30.2527 28.6497 29.6286 28.4033 29.0632C31.8774 27.8576 34.5454 25.1435 34.5454 21.697C34.5454 20.1459 33.9881 18.7203 33.0634 17.5262C33.3053 16.5819 33.2834 15.6308 33.1913 14.9007C33.1095 14.2467 32.9955 13.3899 32.5349 12.8787C31.8497 12.1198 30.7155 12.5666 29.9094 12.8418C29.0443 13.1334 28.2216 13.538 27.4625 14.0451C26.3905 13.7712 25.2882 13.6338 24.1818 13.6364C23.0372 13.6364 21.9329 13.7803 20.8988 14.0463C20.1397 13.5392 19.317 13.1346 18.4519 12.843C17.6458 12.5666 16.5104 12.1198 15.8253 12.8787C15.3554 13.3991 15.2576 14.1879 15.1735 14.8581L15.1677 14.9019C15.0756 15.6331 15.0549 16.5854 15.2967 17.5308C14.3755 18.7238 13.8182 20.147 13.8182 21.697C13.8182 25.1423 16.4862 27.8576 19.9603 29.0632C19.7093 29.6383 19.5784 30.2586 19.5757 30.8861L19.3823 30.9252C18.5566 31.0392 18.0281 30.9367 17.6688 30.7847C16.7937 30.4139 16.3423 29.4801 15.7919 28.7661C15.4487 28.3228 14.9489 27.7689 14.182 27.5133C14.0385 27.4655 13.887 27.4464 13.7361 27.4572C13.5853 27.468 13.438 27.5084 13.3027 27.576C13.0296 27.7127 12.8219 27.9524 12.7254 28.2422C12.6289 28.532 12.6514 28.8483 12.7881 29.1215C12.9248 29.3947 13.1645 29.6023 13.4543 29.6988C14.0968 29.913 14.5413 31.0139 14.9489 31.5021C15.3785 32.018 15.9496 32.5569 16.7683 32.9047C17.5537 33.2386 18.476 33.3572 19.5757 33.2225V34.3636C19.5757 34.669 19.6971 34.9619 19.913 35.1779C20.129 35.3938 20.4219 35.5151 20.7273 35.5151C21.0327 35.5151 21.3255 35.3938 21.5415 35.1779C21.7574 34.9619 21.8788 34.669 21.8788 34.3636V30.9091C21.8788 30.2481 22.1551 29.6539 22.6031 29.2325C23.302 28.5738 22.9451 27.4269 22.0331 27.245C18.3885 26.5184 16.1212 24.1313 16.1212 21.697C16.1212 20.5938 16.5645 19.531 17.3971 18.6063C17.7229 18.2447 17.8082 17.7358 17.6354 17.2936Z" fill="#FAF9EF"/>
</g>
</svg>
