<svg width="48" height="48" viewBox="0 0 48 48" fill="none" xmlns="http://www.w3.org/2000/svg">
<g opacity="0.6">
<circle cx="24" cy="24" r="24" fill="#333333"/>
<path d="M19.1637 12.4848H28.8364C32.5212 12.4848 35.5152 15.4788 35.5152 19.1636V28.8363C35.5152 30.6077 34.8115 32.3064 33.559 33.559C32.3065 34.8115 30.6077 35.5151 28.8364 35.5151H19.1637C15.4788 35.5151 12.4849 32.5212 12.4849 28.8363V19.1636C12.4849 17.3923 13.1885 15.6935 14.441 14.441C15.6936 13.1885 17.3923 12.4848 19.1637 12.4848ZM18.9333 14.7879C17.8339 14.7879 16.7795 15.2246 16.0021 16.002C15.2246 16.7795 14.7879 17.8339 14.7879 18.9333V29.0667C14.7879 31.3582 16.6418 33.2121 18.9333 33.2121H29.0667C30.1661 33.2121 31.2205 32.7754 31.998 31.9979C32.7754 31.2205 33.2121 30.1661 33.2121 29.0667V18.9333C33.2121 16.6418 31.3582 14.7879 29.0667 14.7879H18.9333ZM30.0455 16.5151C30.4272 16.5151 30.7933 16.6668 31.0633 16.9367C31.3332 17.2067 31.4849 17.5728 31.4849 17.9545C31.4849 18.3363 31.3332 18.7024 31.0633 18.9723C30.7933 19.2423 30.4272 19.3939 30.0455 19.3939C29.6637 19.3939 29.2976 19.2423 29.0277 18.9723C28.7577 18.7024 28.6061 18.3363 28.6061 17.9545C28.6061 17.5728 28.7577 17.2067 29.0277 16.9367C29.2976 16.6668 29.6637 16.5151 30.0455 16.5151ZM24 18.2424C25.527 18.2424 26.9915 18.849 28.0712 19.9288C29.151 21.0085 29.7576 22.473 29.7576 24C29.7576 25.527 29.151 26.9914 28.0712 28.0712C26.9915 29.151 25.527 29.7576 24 29.7576C22.473 29.7576 21.0085 29.151 19.9288 28.0712C18.849 26.9914 18.2424 25.527 18.2424 24C18.2424 22.473 18.849 21.0085 19.9288 19.9288C21.0085 18.849 22.473 18.2424 24 18.2424ZM24 20.5454C23.0838 20.5454 22.2051 20.9094 21.5573 21.5573C20.9094 22.2051 20.5455 23.0838 20.5455 24C20.5455 24.9162 20.9094 25.7949 21.5573 26.4427C22.2051 27.0906 23.0838 27.4545 24 27.4545C24.9162 27.4545 25.7949 27.0906 26.4427 26.4427C27.0906 25.7949 27.4546 24.9162 27.4546 24C27.4546 23.0838 27.0906 22.2051 26.4427 21.5573C25.7949 20.9094 24.9162 20.5454 24 20.5454Z" fill="#FAF9EF"/>
</g>
</svg>
