<svg width="49" height="48" viewBox="0 0 49 48" fill="none" xmlns="http://www.w3.org/2000/svg">
<g opacity="0.6">
<circle cx="24.0909" cy="24" r="24" fill="#333333"/>
<g clip-path="url(#clip0_118_35)">
<path fill-rule="evenodd" clip-rule="evenodd" d="M18.8735 17.9811C19.2517 17.5913 19.4597 17.0705 19.4553 16.5295C19.4358 16.0042 19.2163 15.5063 18.8419 15.1376C18.4674 14.7688 17.9662 14.557 17.4408 14.5455C16.9139 14.5574 16.4113 14.7689 16.0344 15.1372C15.6575 15.5055 15.4344 16.0031 15.4102 16.5295C15.418 17.0699 15.6331 17.5868 16.0109 17.9733C16.3888 18.3598 16.9006 18.5865 17.4408 18.6065C17.9818 18.5938 18.4963 18.3692 18.8735 17.9811ZM17.0655 21.28C16.2117 21.2611 15.6299 21.248 15.6299 22.2924V33.9171C15.6299 34.9396 16.1855 34.9193 16.9855 34.8887C17.1309 34.8819 17.2832 34.8781 17.4422 34.8771C17.6022 34.8781 17.7545 34.8819 17.8989 34.8887C18.696 34.9178 19.24 34.9396 19.24 33.9171V22.2938C19.24 21.2495 18.6699 21.2611 17.8204 21.2815C17.5688 21.2874 17.3171 21.2859 17.0655 21.28ZM23.0059 21.3018C22.6189 21.3789 22.3702 21.6262 22.3702 22.2924V33.9171C22.3702 34.9396 22.904 34.9193 23.7055 34.8887C23.8509 34.8819 24.0051 34.8781 24.168 34.8771C24.3309 34.8781 24.4856 34.8819 24.632 34.8887C25.4379 34.9178 25.9819 34.9396 25.9819 33.9171V27.7178C25.9508 27.4009 25.9875 27.0811 26.0894 26.7794C26.1914 26.4778 26.3563 26.2013 26.5731 25.9681C26.79 25.735 27.054 25.5507 27.3475 25.4273C27.641 25.3039 27.9574 25.2443 28.2757 25.2524C28.5955 25.2332 28.9157 25.2832 29.2145 25.3989C29.5133 25.5145 29.7837 25.6932 30.0073 25.9227C30.2309 26.1522 30.4024 26.4272 30.5102 26.7289C30.618 27.0306 30.6596 27.352 30.632 27.6713V33.8691C30.632 34.8931 31.1644 34.8727 31.9659 34.8422C32.1113 34.8354 32.2655 34.8315 32.4284 34.8305C32.5913 34.8315 32.746 34.8354 32.8924 34.8422C33.6939 34.8713 34.2262 34.8931 34.2262 33.8705V25.9345C34.256 25.283 34.1484 24.6324 33.9102 24.0252C33.672 23.418 33.3087 22.8678 32.8439 22.4102C32.3791 21.9527 31.8232 21.5981 31.2123 21.3695C30.6014 21.141 29.9492 21.0436 29.2982 21.0836C28.6351 21.0227 27.9675 21.1334 27.3595 21.4049C26.7515 21.6764 26.2235 22.0998 25.8262 22.6342C25.8422 22.0611 25.656 21.3018 25.192 21.3018C25.0582 21.3018 24.8531 21.2945 24.6204 21.2873C24.0386 21.2698 23.2822 21.2465 23.0059 21.3018Z" fill="#FAF9EF"/>
</g>
</g>
<defs>
<clipPath id="clip0_118_35">
<rect width="20.3636" height="20.3636" fill="white" transform="translate(14.6364 14.5455)"/>
</clipPath>
</defs>
</svg>
