<svg width="42" height="54" viewBox="0 0 42 54" fill="none" xmlns="http://www.w3.org/2000/svg">
<g clip-path="url(#clip0_172_168)">
<path d="M6.34775 16.7086C6.4205 17.4358 6.73036 18.1762 6.92261 18.8757C7.50302 20.9876 7.97482 23.1251 8.64719 25.2115C8.97566 26.2308 9.29774 27.2734 9.72871 28.2553C9.98325 28.8352 10.3847 29.7137 11.0831 29.8672C12.7331 30.2301 12.6606 26.3369 12.7053 25.5427C12.8778 22.4777 12.9123 19.296 12.3984 16.2605C12.0247 14.0531 11.3349 11.391 9.8505 9.63741C8.33937 7.85216 7.00491 10.0862 6.34775 11.4782C4.85412 14.6422 4.19043 18.0901 4.36984 21.5785C4.43646 22.8738 4.60516 24.2428 5.17367 25.4258C5.51869 26.1438 6.24906 27.0397 7.14184 26.994C7.95046 26.9525 8.67409 26.1597 9.13436 25.5719C10.204 24.2061 10.9457 22.5493 11.6189 20.9649C13.125 17.4206 13.9334 13.5901 14.4494 9.78838C14.636 8.41333 14.8114 7.03486 14.7563 5.64403C14.7307 4.99652 14.6622 4.20879 14.3276 3.63273C13.8206 2.7599 13.7144 5.38872 13.7138 5.52715C13.6984 8.83262 13.9823 12.0399 14.5127 15.306C15.3908 20.7128 16.5252 26.0978 17.6209 31.4646C18.2925 34.7543 18.8337 38.069 19.589 41.3409" stroke="white" stroke-width="2" stroke-linecap="round"/>
<path d="M15.2045 20.3028C15.1763 20.5847 14.8098 21.226 14.7709 20.5853C14.6685 18.8961 14.7574 16.9886 15.3896 15.4085C15.5547 14.9958 15.9598 14.0212 16.5394 14.0303C17.0866 14.0388 17.3669 14.8206 17.4796 15.2429C17.9982 17.1871 17.2955 19.4975 16.3396 21.2037C15.9815 21.843 14.842 23.6312 13.8161 23.0543C13.3276 22.7797 14.1569 22.0854 14.464 22.0609C15.2591 21.9973 16.1256 22.8322 16.8414 23.1128C17.9616 23.5519 19.0425 23.9361 20.0178 23.0154C20.8665 22.2141 20.9974 21.0156 20.8849 19.9035C20.8636 19.6927 20.3539 18.6129 20.1347 19.2704C19.9169 19.9233 20.2644 20.961 20.3783 21.608C20.5996 22.8657 20.8511 24.2597 21.7131 25.2604C22.4931 26.1659 23.3037 25.9567 23.6715 24.8221C24.2483 23.0431 24.0601 20.7447 23.7105 18.9489C23.5561 18.1558 23.1719 14.8648 21.6546 15.3646C20.8381 15.6336 20.4712 16.6054 20.3003 17.3662C19.9106 19.1015 20.0565 20.9105 20.1152 22.6696" stroke="white" stroke-width="2" stroke-linecap="round"/>
<path d="M27.1304 16.2702C27.1116 16.1196 26.9019 15.8787 26.8235 15.7394C26.6062 15.3531 26.4752 14.8082 26.0781 14.5657C25.7312 14.3537 25.2944 14.6985 25.0746 14.9748C24.5532 15.6299 24.4558 16.606 24.3243 17.4098C24.141 18.531 24.1657 19.6176 24.2854 20.7457C24.4159 21.9758 24.4429 23.5077 25.1184 24.5881C25.6386 25.42 26.3966 25.0374 26.9551 24.4712C27.9174 23.4955 28.0625 21.9384 27.9196 20.6532" stroke="white" stroke-width="2" stroke-linecap="round"/>
<path d="M27.6566 9.6084C27.505 11.1233 27.5499 12.6785 27.676 14.2057C28.0899 19.2183 28.9549 24.161 29.4981 29.1565" stroke="white" stroke-width="2" stroke-linecap="round"/>
<path d="M31.1642 9.34521C31.1195 9.30609 31.2392 11.6431 31.2519 11.8386C31.5982 17.1666 31.8719 22.4538 32.5672 27.7537" stroke="white" stroke-width="2" stroke-linecap="round"/>
<path d="M27.9196 18.199C27.7684 18.3501 27.6295 18.4054 27.525 18.5934C27.3736 18.8659 28.2761 18.6591 28.3776 18.6373C29.2096 18.4583 30.0585 18.3511 30.8865 18.1551C31.0927 18.1063 31.6653 17.8107 31.6026 17.936" stroke="white" stroke-width="2" stroke-linecap="round"/>
<path d="M34.584 22.4944C34.5658 22.3483 34.4416 22.2803 34.4038 22.4506C34.3606 22.6446 34.3417 22.8174 34.4574 23.0155C34.6549 23.3539 35.0193 22.3866 34.7156 22.1438C34.2512 21.7724 34.2489 22.7566 34.4086 23.0009C34.9139 23.7734 34.8799 22.0454 34.6717 22.6697" stroke="white" stroke-width="2" stroke-linecap="round"/>
<path d="M9.32922 47.3897C9.50403 47.3679 9.51045 47.0544 9.55819 46.9271C10.0246 45.6839 10.482 44.4372 10.9418 43.1918C11.6031 41.4005 12.0923 39.5011 12.4666 37.6303C12.8715 35.6065 13.2909 33.4885 13.4312 31.426C13.4476 31.1855 13.6537 29.4507 13.4069 29.3026C13.2944 29.2352 13.4416 31.0585 13.4556 31.1386C13.8407 33.3522 14.102 35.5391 14.7368 37.7082C16.2634 42.924 18.2274 47.9783 20.2906 53" stroke="white" stroke-width="2" stroke-linecap="round"/>
<path d="M19.7644 44.9349C19.7349 45.1711 19.658 44.7796 19.6329 44.7595C19.5393 44.6847 19.4913 44.3188 19.4526 44.2141C19.1974 43.5237 19.1057 42.7693 18.9801 42.047C18.7559 40.7583 18.2345 38.861 18.9752 37.6494C19.6623 36.5255 21.1717 37.4271 21.7813 38.0974" stroke="white" stroke-width="2" stroke-linecap="round"/>
<path d="M5.55856 32.7502C6.64626 33.8375 7.68026 34.9709 8.8908 35.9254C11.3948 37.8996 14.3756 38.6296 17.5478 38.599C21.9638 38.5563 26.3241 37.1979 30.034 34.8248C34.0025 32.2861 37.6366 28.2862 38.7494 23.6141C39.7826 19.2763 39.0828 14.4753 37.0833 10.509C34.5775 5.53815 29.4631 2.17869 24.0125 1.27058C17.7512 0.227396 10.6809 2.21941 6.22111 6.82723C0.703421 12.5281 0.0702832 20.7577 1.96324 28.1042" stroke="white" stroke-width="2" stroke-linecap="round"/>
<path d="M23.6228 30.7344C23.1729 30.7906 23.4377 34.1055 23.4279 34.4258C23.3659 36.4649 23.3791 38.4578 23.6618 40.4841C23.936 42.45 24.3625 44.3946 24.7628 46.3378" stroke="white" stroke-width="2" stroke-linecap="round"/>
<path d="M35.8995 5.48828C37.5425 6.94821 38.15 8.76354 38.7933 10.8355" stroke="white" stroke-width="2" stroke-linecap="round"/>
<path d="M40.1086 8.81934C40.1356 9.08897 40.3066 9.37524 40.3766 9.6375C40.6618 10.7065 40.749 11.752 40.8102 12.8516" stroke="white" stroke-width="2" stroke-linecap="round"/>
</g>
<defs>
<clipPath id="clip0_172_168">
<rect width="42" height="54" fill="white"/>
</clipPath>
</defs>
</svg>
