<svg width="179" height="291" viewBox="0 0 179 291" fill="none" xmlns="http://www.w3.org/2000/svg">
<path fill-rule="evenodd" clip-rule="evenodd" d="M90.1194 82.6128C91.0869 82.6128 92.4689 83.601 93.7816 85.2244C94.9563 86.7068 96.5455 89.3187 97.3054 91.0834C98.0657 92.8481 99.1022 95.5307 99.5859 97.0834C100.069 98.6365 102.972 105.484 106.15 112.26C109.259 119.037 112.921 127.014 114.303 129.908C115.616 132.802 117.965 137.249 122.111 144.379L116.929 153.202C114.096 158.073 109.121 167.744 105.804 174.732C102.488 181.721 98.9639 189.485 97.9964 192.027C97.0292 194.568 95.6473 197.744 94.9563 199.085C94.3343 200.427 93.6433 202.191 93.5054 202.968C93.4361 203.744 92.8834 205.015 92.3996 205.791C91.9162 206.568 91.0869 208.615 90.6032 210.38C90.0505 212.145 89.4978 213.839 89.2212 214.262C88.945 214.686 88.1848 216.874 87.4938 219.203C86.8028 221.533 85.7663 224.004 85.1447 224.71C84.5226 225.415 83.8317 225.98 83.5555 225.909C83.21 225.909 82.6569 225.203 82.2425 224.286C81.7587 223.439 81.2753 221.956 81.137 220.968C80.9298 219.98 77.1294 210.662 72.5691 200.144C68.0085 189.626 61.79 174.52 58.7495 166.402C55.7784 158.355 53.291 151.579 53.291 151.226C53.291 150.943 52.8765 149.673 52.2545 148.402C51.2873 146.355 51.3563 145.931 52.3238 143.814C52.9455 142.614 56.1932 137.461 59.5098 132.378C62.8264 127.296 67.8012 119.531 70.4962 115.084C73.2601 110.637 75.7475 106.472 76.093 105.907C76.4385 105.342 78.5804 101.531 80.7916 97.4364C83.0717 93.3424 85.6974 88.3305 86.7338 86.2835C88.1158 83.5303 88.945 82.6128 90.1194 82.6128ZM86.3883 94.9658C85.0064 97.6483 83.279 100.966 82.588 102.166C81.828 103.437 81.0678 104.496 80.7916 104.496C80.4461 104.496 79.4096 106.401 78.3731 108.731C77.2677 111.131 76.2312 113.037 75.9547 112.966C75.6092 112.966 75.402 113.248 75.402 113.672C75.402 114.096 74.642 115.578 73.6745 116.99C72.707 118.472 71.7399 120.025 71.4633 120.378C71.1179 120.802 70.4269 121.931 69.8742 122.919C69.3214 123.908 68.216 125.743 67.4557 127.014C66.6958 128.284 63.6557 133.084 60.7535 137.743L55.3639 146.143C57.4369 153.555 58.404 156.944 58.8188 158.496C59.3026 160.049 60.2697 163.579 61.0297 166.261C61.79 168.944 62.6192 171.838 62.8954 172.614C63.2409 173.391 64.6228 176.355 66.0048 179.109C67.3868 181.932 68.4922 184.897 68.4922 185.674C68.4922 186.45 68.8377 187.085 69.1832 187.085C69.598 187.085 70.0814 187.791 70.2889 188.638C70.5651 189.556 71.3251 191.603 72.0161 193.226C72.7763 194.921 73.6745 196.403 74.02 196.615C74.4345 196.826 74.5727 197.179 74.3655 197.462C74.2273 197.815 74.642 198.662 75.2637 199.438C75.9547 200.215 77.6132 203.25 78.9948 206.144C80.3768 209.038 81.897 212.85 82.3807 214.615L83.21 217.792C84.7299 213.98 85.9736 210.45 86.9411 207.556C87.8393 204.662 89.083 201.485 89.5667 200.497C90.1194 199.509 92.7451 194.144 95.44 188.497C98.1347 182.85 100.622 177.768 100.968 177.203C101.313 176.638 102.557 174.097 103.731 171.556C104.837 169.014 106.081 166.473 106.357 165.908C106.703 165.344 107.463 163.791 108.085 162.52C108.707 161.32 109.259 159.767 109.259 159.202C109.259 158.638 109.467 158.073 109.812 157.932C110.089 157.861 111.747 154.755 113.612 151.085C115.409 147.414 116.86 143.673 116.86 142.755C116.86 141.908 115.962 139.931 114.787 138.378C113.612 136.826 112.714 135.272 112.714 134.849C112.714 134.425 112.23 133.931 111.608 133.578C110.987 133.296 109.121 130.119 107.463 126.519C105.804 122.99 104.422 119.531 104.422 118.966C104.422 118.402 104.146 117.907 103.731 117.907C103.386 117.907 102.903 117.201 102.764 116.284C102.626 115.437 101.866 113.107 101.106 111.201C100.346 109.225 99.1711 106.401 98.4802 104.848C97.7892 103.295 97.2365 101.884 97.1675 101.672C97.0982 101.46 96.822 100.684 96.4765 99.9073C96.131 99.1308 95.3708 97.719 94.7491 96.7305C94.0581 95.7423 93.2978 94.1892 93.0216 93.2011C92.7451 92.2129 91.9162 90.7305 91.2942 89.8129C90.396 88.6128 89.9122 88.4012 89.4978 89.107C89.2212 89.601 87.7703 92.2835 86.3883 94.9658ZM98.8256 12.5173C100.208 13.082 101.659 13.7173 102.004 13.8585C102.419 13.9997 103.524 15.5527 104.63 17.3174C105.735 19.1527 106.91 22.7528 107.532 25.9293C108.085 28.9647 108.637 33.8354 108.845 36.7296C108.983 39.6238 108.776 43.7885 108.499 45.9061C108.154 48.0238 107.808 51.0593 107.67 52.612C107.532 54.1651 106.288 57.8358 104.906 60.73C103.594 63.6242 101.659 66.7301 100.691 67.5772C99.7239 68.4948 98.1347 69.4829 97.1675 69.9065C96.2 70.2595 94.6798 70.6124 93.7126 70.6124C92.7451 70.6124 90.8797 70.0478 89.5667 69.342C88.1848 68.7064 87.1483 67.9302 87.1483 67.5772C87.1483 67.2946 86.3884 65.8829 85.4209 64.4008C84.5226 62.9887 83.2789 60.1651 82.6569 58.2594C82.0353 56.2828 81.4132 54.0945 81.2753 53.3179C81.137 52.5417 80.7223 48.871 80.3078 45.2002C79.9623 41.5295 79.7551 35.8118 79.8241 32.494C79.9623 28.6823 80.3078 26.4235 80.7916 26.2823C81.2753 26.2117 81.6208 25.7881 81.6208 25.4352C81.6208 25.0117 82.1042 24.2352 82.6569 23.6704C83.21 23.1057 83.6934 22.0469 83.6934 21.341C83.6934 20.7057 85.3519 18.5174 87.4248 16.6115C89.4978 14.635 92.3996 12.7291 93.7816 12.3055C95.8545 11.6702 96.891 11.7408 98.8256 12.5173ZM90.8104 19.788C90.3267 19.788 89.9122 20.2822 89.9122 20.8469C89.9122 21.4116 89.6357 21.9057 89.2212 21.9057C88.8758 21.9057 88.5303 22.3293 88.5303 22.7528C88.5995 23.2469 88.1158 24.1646 87.4938 24.7293C86.8721 25.294 86.3884 26.2117 86.4573 26.6352C86.4573 27.1293 85.8356 28.9647 85.0754 30.7294C83.901 33.4118 83.7627 35.0352 83.9699 40.753C84.1082 44.565 84.5919 49.0826 85.0064 50.8473C85.4901 52.612 86.5266 55.7888 87.2866 57.9065C88.1158 60.0242 89.3595 62.5654 90.1194 63.5536C90.8104 64.5417 92.0541 65.5299 92.8834 65.7419C93.7126 65.9535 95.2328 65.6712 96.3382 65.036C97.3747 64.4008 98.204 63.7652 98.204 63.5536C98.204 63.3416 98.7567 62.5654 99.4477 61.7889C100.139 61.0123 101.451 57.6945 102.281 54.3767C103.455 50.0005 103.939 46.4707 103.939 41.3179C103.939 37.4355 103.801 32.353 103.594 30.0235C103.386 27.694 102.903 25.0822 102.488 24.1646C102.004 23.3175 101.659 22.0469 101.659 21.341C101.728 20.7057 101.175 19.5762 100.484 18.9409C99.7931 18.2351 98.1347 17.5291 96.822 17.2468C94.8873 16.8938 94.1271 17.1762 93.0216 18.3057C92.2617 19.1527 91.2252 19.8586 90.8104 19.788Z" fill="white"/>
<path d="M8.30802 248.885H3.80948V264.462H7.6063C8.90116 264.462 9.98299 264.323 10.8518 264.046C11.7206 263.76 12.4223 263.294 12.957 262.647C13.5 262 13.8842 261.194 14.1098 260.227C14.3437 259.261 14.4606 258.055 14.4606 256.61C14.4606 255.317 14.3646 254.216 14.1725 253.309C13.9803 252.393 13.6545 251.595 13.195 250.914C12.7356 250.226 12.1007 249.717 11.2904 249.389C10.4884 249.053 9.4943 248.885 8.30802 248.885ZM1.97998 247.449H8.29551C9.62377 247.449 10.7682 247.608 11.7289 247.928C12.6896 248.239 13.5125 248.751 14.1975 249.465C14.8909 250.171 15.4046 251.116 15.7388 252.301C16.0813 253.477 16.2526 254.909 16.2526 256.598C16.2526 258.833 15.9602 260.635 15.3754 262.004C14.7906 263.374 13.9135 264.365 12.744 264.978C11.5828 265.592 10.0707 265.898 8.20778 265.898H1.97998V247.449ZM34.4271 247.108C35.6468 247.108 36.7163 247.285 37.635 247.638C38.5624 247.991 39.3644 248.537 40.0409 249.276C40.7178 250.015 41.2272 250.998 41.5698 252.225C41.9208 253.443 42.0962 254.888 42.0962 256.56C42.0962 259.921 41.4486 262.37 40.1539 263.907C38.8588 265.445 36.946 266.213 34.4146 266.213C33.1866 266.213 32.1133 266.037 31.1943 265.684C30.2754 265.331 29.4817 264.777 28.8134 264.021C28.1451 263.264 27.6397 262.265 27.2972 261.021C26.9631 259.778 26.796 258.295 26.796 256.573C26.796 254.892 26.9672 253.443 27.3097 252.225C27.6606 250.998 28.1702 250.015 28.8385 249.276C29.5068 248.528 30.3004 247.982 31.2193 247.638C32.1467 247.285 33.2158 247.108 34.4271 247.108ZM34.4146 248.583C33.5459 248.583 32.7815 248.705 32.1216 248.948C31.47 249.192 30.927 249.536 30.4926 249.982C30.0665 250.419 29.7198 250.973 29.4525 251.645C29.1852 252.317 28.993 253.053 28.8761 253.851C28.7675 254.641 28.7132 255.544 28.7132 256.56C28.7132 259.391 29.1476 261.462 30.0164 262.773C30.8852 264.075 32.3555 264.726 34.4271 264.726C36.5075 264.726 37.9818 264.079 38.8505 262.786C39.7195 261.492 40.1539 259.421 40.1539 256.573C40.1539 255.556 40.0955 254.649 39.9784 253.851C39.8696 253.053 39.6778 252.317 39.4019 251.645C39.1347 250.973 38.7838 250.419 38.3494 249.982C37.9151 249.536 37.3678 249.192 36.7079 248.948C36.0561 248.705 35.292 248.583 34.4146 248.583ZM54.9076 248.797V255.35H57.7645C58.2659 255.35 58.6836 255.35 59.0178 255.35C59.3601 255.342 59.7277 255.329 60.1204 255.313C60.5214 255.287 60.8473 255.258 61.0978 255.224C61.3567 255.191 61.6326 255.144 61.9248 255.086C62.2174 255.027 62.4512 254.955 62.6267 254.872C62.8102 254.787 62.994 254.687 63.1778 254.569C63.3616 254.443 63.5079 254.3 63.6163 254.14C63.7251 253.981 63.8213 253.796 63.9047 253.586C63.9965 253.376 64.0593 253.145 64.0927 252.893C64.1344 252.633 64.1553 252.347 64.1553 252.036C64.1553 251.691 64.1219 251.38 64.0552 251.103C63.9965 250.818 63.9131 250.574 63.8043 250.372C63.7042 250.162 63.5621 249.977 63.3783 249.818C63.2028 249.65 63.0235 249.511 62.8397 249.402C62.6642 249.293 62.4387 249.201 62.1628 249.125C61.8956 249.041 61.6451 248.982 61.4112 248.948C61.1854 248.906 60.8973 248.873 60.5464 248.848C60.2038 248.822 59.9032 248.81 59.6443 248.81C59.3935 248.801 59.072 248.797 58.6794 248.797H54.9076ZM54.9201 256.699V264.55H58.8549C59.3309 264.55 59.7319 264.546 60.0578 264.537C60.3834 264.521 60.7636 264.487 61.1979 264.436C61.6409 264.378 62.0082 264.298 62.3008 264.197C62.593 264.088 62.8981 263.941 63.2153 263.756C63.5329 263.563 63.7876 263.332 63.9798 263.063C64.1719 262.794 64.3266 262.458 64.4436 262.055C64.5688 261.643 64.6316 261.181 64.6316 260.668C64.6316 260.248 64.5938 259.87 64.5187 259.534C64.452 259.19 64.3641 258.887 64.2557 258.627C64.1469 258.366 63.9923 258.14 63.7918 257.946C63.5913 257.745 63.395 257.577 63.2028 257.442C63.0107 257.308 62.7643 257.194 62.4637 257.102C62.1628 257.001 61.8831 256.926 61.6242 256.875C61.3734 256.825 61.0603 256.787 60.6843 256.762C60.3084 256.737 59.9741 256.72 59.6819 256.711C59.3976 256.703 59.0428 256.699 58.6168 256.699H54.9201ZM53.0906 265.898V247.449H58.5915C59.1763 247.449 59.7069 247.466 60.1829 247.499C60.6676 247.524 61.1687 247.579 61.6868 247.663C62.2045 247.747 62.6601 247.86 63.0527 248.003C63.4537 248.146 63.838 248.335 64.2053 248.57C64.5729 248.806 64.8738 249.083 65.1077 249.402C65.3499 249.721 65.542 250.112 65.6841 250.574C65.8262 251.028 65.8971 251.536 65.8971 252.099C65.8971 254.267 64.7651 255.548 62.5013 255.943C63.8127 256.203 64.7984 256.749 65.4586 257.581C66.1185 258.413 66.4486 259.45 66.4486 260.694C66.4486 261.727 66.2898 262.58 65.9722 263.252C65.6549 263.924 65.141 264.457 64.4311 264.852C63.7209 265.239 62.8689 265.512 61.8748 265.671C60.8806 265.823 59.636 265.898 58.1405 265.898H53.0906ZM88.2195 265.898H77.0295V247.449H78.8589V264.474H88.2195V265.898ZM109.79 265.898H97.5099V247.449H109.652V248.86H99.3393V255.338H108.311V256.787H99.3393V264.474H109.79V265.898ZM119.231 258.665V247.449H121.236V258.362C121.236 259.152 121.273 259.845 121.348 260.441C121.424 261.038 121.57 261.614 121.787 262.168C122.004 262.714 122.292 263.164 122.652 263.517C123.011 263.869 123.483 264.151 124.068 264.361C124.661 264.563 125.358 264.663 126.16 264.663C126.962 264.663 127.656 264.563 128.24 264.361C128.825 264.151 129.293 263.869 129.644 263.517C130.003 263.164 130.287 262.714 130.496 262.168C130.713 261.614 130.859 261.038 130.934 260.441C131.01 259.845 131.047 259.152 131.047 258.362V247.449H133.014V258.576C133.014 261.206 132.451 263.139 131.323 264.374C130.195 265.6 128.449 266.213 126.085 266.213C123.779 266.213 122.059 265.613 120.922 264.411C119.795 263.201 119.231 261.286 119.231 258.665ZM148.683 265.898L142.405 247.449H144.348L148.019 258.387C148.111 258.656 148.345 259.37 148.721 260.53C149.105 261.681 149.397 262.563 149.598 263.176C149.798 262.571 150.086 261.719 150.462 260.618C150.838 259.518 151.093 258.774 151.227 258.387L154.836 247.449H156.69L150.412 265.898H148.683ZM178.674 265.898H166.394V247.449H178.537V248.86H168.224V255.338H177.196V256.787H168.224V264.474H178.674V265.898Z" fill="white"/>
<path d="M57.8138 284.584L55.7479 279.532C55.7011 279.416 55.6562 279.287 55.6132 279.145C55.5747 279.287 55.5298 279.416 55.4785 279.532L53.4126 284.584H57.8138ZM59.5204 287.836H59.2445C59.1804 287.836 59.1335 287.8 59.1034 287.727L57.9293 284.855H53.2971L52.123 287.727C52.1018 287.8 52.0524 287.836 51.9755 287.836H51.7124L55.4464 278.764H55.7864L59.5204 287.836ZM62.8187 283.294H64.5382C64.9616 283.294 65.3421 283.244 65.6802 283.145C66.0221 283.042 66.3108 282.896 66.5463 282.707C66.7856 282.513 66.9675 282.281 67.0916 282.01C67.22 281.739 67.2841 281.434 67.2841 281.094C67.2841 280.392 67.0573 279.876 66.6041 279.545C66.1505 279.214 65.496 279.048 64.6408 279.048H62.8187V283.294ZM68.4518 287.836H68.1631C68.1159 287.836 68.0733 287.83 68.0348 287.817C68.0004 287.804 67.9661 287.774 67.9321 287.727L64.7499 283.81C64.7156 283.763 64.6793 283.724 64.6408 283.694C64.6065 283.664 64.5658 283.64 64.5189 283.623C64.4759 283.602 64.4227 283.586 64.3585 283.578C64.2985 283.569 64.2238 283.565 64.134 283.565H62.8187V287.836H62.4659V278.764H64.6408C65.6202 278.764 66.3644 278.956 66.8735 279.339C67.3823 279.721 67.637 280.302 67.637 281.081C67.637 281.438 67.5706 281.763 67.4381 282.055C67.3053 282.343 67.1192 282.595 66.8799 282.81C66.6403 283.021 66.3493 283.191 66.0074 283.32C65.6651 283.444 65.2866 283.52 64.8718 283.545C64.9488 283.589 65.0235 283.653 65.0963 283.739L68.4518 287.836ZM76.7275 279.074H73.4234V287.836H73.0705V279.074H69.7471V278.764H76.7275V279.074ZM84.9682 287.533L84.9554 287.836H79.6303V278.764H84.9554V279.067H79.9832V283.087H84.1727V283.384H79.9832V287.533H84.9682ZM92.6296 279.706C92.604 279.75 92.5674 279.771 92.5206 279.771C92.4734 279.771 92.407 279.73 92.3217 279.648C92.2402 279.562 92.1247 279.468 91.9752 279.364C91.8254 279.261 91.6329 279.169 91.3978 279.087C91.1623 279.001 90.8717 278.958 90.5253 278.958C90.1743 278.958 89.8622 279.012 89.5885 279.119C89.3191 279.222 89.0923 279.364 88.9085 279.545C88.7243 279.726 88.5854 279.934 88.4914 280.171C88.3971 280.403 88.3503 280.648 88.3503 280.906C88.3503 281.238 88.4164 281.515 88.5492 281.739C88.6817 281.958 88.8571 282.143 89.0753 282.294C89.2934 282.444 89.5392 282.571 89.8131 282.674C90.0909 282.778 90.3754 282.879 90.6664 282.978C90.957 283.072 91.2393 283.176 91.5133 283.287C91.7911 283.395 92.0394 283.533 92.2575 283.7C92.4756 283.868 92.6508 284.077 92.7836 284.326C92.9161 284.571 92.9825 284.877 92.9825 285.242C92.9825 285.617 92.9183 285.97 92.79 286.301C92.6659 286.628 92.4821 286.914 92.2383 287.159C91.9986 287.4 91.7035 287.591 91.3529 287.733C91.0064 287.871 90.6106 287.939 90.166 287.939C89.8622 287.939 89.5863 287.912 89.3383 287.856C89.0945 287.804 88.8677 287.729 88.6583 287.63C88.453 287.526 88.2624 287.402 88.0873 287.256C87.916 287.109 87.7514 286.944 87.5932 286.759L87.6767 286.63C87.6978 286.608 87.7151 286.593 87.728 286.584C87.745 286.572 87.7684 286.565 87.7986 286.565C87.8284 286.565 87.8691 286.593 87.9204 286.649C87.9759 286.701 88.0465 286.767 88.1322 286.849C88.2175 286.926 88.3202 287.013 88.4401 287.107C88.5598 287.197 88.7009 287.284 88.8636 287.365C89.0304 287.443 89.2206 287.509 89.4346 287.565C89.6527 287.617 89.8984 287.643 90.1724 287.643C90.5615 287.643 90.9102 287.583 91.2181 287.462C91.5261 287.337 91.7847 287.17 91.9945 286.959C92.2081 286.744 92.3707 286.494 92.4821 286.21C92.593 285.926 92.6489 285.623 92.6489 285.3C92.6489 284.957 92.5825 284.673 92.45 284.449C92.3172 284.225 92.142 284.038 91.9239 283.887C91.7099 283.737 91.4639 283.612 91.1861 283.513C90.908 283.41 90.6234 283.313 90.3328 283.223C90.046 283.128 89.7637 283.027 89.4859 282.92C89.2078 282.808 88.9598 282.668 88.7417 282.5C88.5277 282.328 88.3545 282.118 88.222 281.868C88.0892 281.614 88.0231 281.298 88.0231 280.919C88.0231 280.623 88.0786 280.339 88.1899 280.068C88.3009 279.797 88.4613 279.558 88.6711 279.351C88.8847 279.141 89.1459 278.973 89.4538 278.848C89.7659 278.724 90.123 278.661 90.5253 278.661C90.9785 278.661 91.3785 278.734 91.725 278.88C92.0756 279.027 92.4028 279.255 92.7066 279.564L92.6296 279.706ZM101.246 284.584L99.1798 279.532C99.1326 279.416 99.0877 279.287 99.0451 279.145C99.0066 279.287 98.9617 279.416 98.9103 279.532L96.8445 284.584H101.246ZM102.952 287.836H102.676C102.612 287.836 102.565 287.8 102.535 287.727L101.361 284.855H96.729L95.5549 287.727C95.5334 287.8 95.4843 287.836 95.4073 287.836H95.1443L98.8783 278.764H99.2183L102.952 287.836ZM112.672 278.764V287.836H112.525C112.469 287.836 112.422 287.81 112.384 287.759L106.193 279.345C106.197 279.384 106.199 279.425 106.199 279.468C106.203 279.506 106.205 279.543 106.205 279.577V287.836H105.897V278.764H106.058C106.092 278.764 106.12 278.771 106.141 278.784C106.163 278.792 106.186 278.814 106.212 278.848L112.377 287.23C112.373 287.191 112.369 287.152 112.365 287.114C112.365 287.075 112.365 287.038 112.365 287.004V278.764H112.672ZM117.17 287.836H116.817V278.764H117.17V287.836ZM118.94 275.99L116.83 277.848C116.787 277.887 116.731 277.906 116.663 277.906H116.445L118.19 276.106C118.233 276.059 118.275 276.028 118.318 276.016C118.361 275.998 118.425 275.99 118.511 275.99H118.94ZM126.222 284.584L124.156 279.532C124.109 279.416 124.064 279.287 124.021 279.145C123.983 279.287 123.938 279.416 123.887 279.532L121.821 284.584H126.222ZM127.929 287.836H127.653C127.589 287.836 127.542 287.8 127.512 287.727L126.337 284.855H121.705L120.531 287.727C120.51 287.8 120.461 287.836 120.384 287.836H120.121L123.855 278.764H124.195L127.929 287.836Z" fill="white"/>
</svg>
