<svg width="179" height="115" viewBox="0 0 179 115" fill="none" xmlns="http://www.w3.org/2000/svg">
<g clip-path="url(#clip0_2055_247)">
<path d="M75.5043 0.15263L177.632 24.1295L179 24.4508V79.8065C179 80.7873 178.206 81.5825 177.228 81.5825C176.249 81.5825 175.455 80.7873 175.455 79.8065V27.2666L75.3466 3.76372L26.3626 30.0305V39.3977L37.7293 34.4424L74.3931 18.4579L75.1437 18.1309L75.8787 18.4908L115.755 38.0275L116.749 38.5144V81.5825H108.774V88.9088H76.8725V109.448L74.0014 107.175L66.9212 101.568L59.4324 95.791H49.4425C49.3087 96.3958 49.0908 97.1164 48.7305 97.8504C48.2533 98.8227 47.5099 99.8533 46.3592 100.643C45.1966 101.442 43.7208 101.924 41.9051 101.944C40.0813 101.964 38.5897 101.502 37.4082 100.711C36.2408 99.9301 35.4781 98.896 34.9834 97.9205C34.5984 97.1612 34.3641 96.4131 34.2193 95.791H17.2871C17.1596 96.4375 16.9343 97.2465 16.529 98.0724C16.0518 99.0448 15.3081 100.075 14.1574 100.865C12.9947 101.664 11.5191 102.146 9.7034 102.166C7.87954 102.186 6.388 101.724 5.20651 100.933C4.03913 100.152 3.2768 99.118 2.78217 98.1425C2.34996 97.29 2.10662 96.4526 1.96785 95.791H1.77228C0.793475 95.791 0 94.9958 0 94.0149C3.4254e-07 93.0341 0.793475 92.2389 1.77228 92.2389H60.6389L61.117 92.6074L69.0922 98.7601L69.1011 98.7668L69.1099 98.7739L73.328 102.114V88.9088H0V50.8913L1.06527 50.4268L22.8181 40.9431V27.9027L23.7544 27.401L74.2642 0.316101L74.8535 0L75.5043 0.15263ZM5.71404 96.013C5.77957 96.1857 5.85454 96.3607 5.94205 96.5334C6.23155 97.1044 6.62854 97.6132 7.1752 97.9791C7.70786 98.3357 8.48549 98.6265 9.66445 98.6136C10.8514 98.6003 11.6278 98.2966 12.1541 97.9352C12.6924 97.5657 13.0748 97.0622 13.3483 96.505C13.4285 96.3416 13.4971 96.176 13.5569 96.013H5.71404ZM37.9157 95.791C37.9813 95.9637 38.0562 96.1387 38.1437 96.3114C38.4332 96.8824 38.8302 97.3912 39.3769 97.7571C39.9095 98.1136 40.6869 98.4045 41.8657 98.3916C43.0528 98.3783 43.8295 98.0746 44.3557 97.7131C44.894 97.3437 45.2764 96.8402 45.5502 96.283C45.6304 96.1196 45.6986 95.954 45.758 95.791H37.9157ZM3.54455 53.2192V85.3566H73.328V81.5825H22.8181V44.8171L3.54455 53.2192ZM76.8725 85.3566H105.229V81.5825H76.8725V85.3566ZM39.1433 37.6997L26.3626 43.2716V78.0304H73.328V32.9894L75.6288 33.7096L107.53 43.7L108.774 44.0898V78.0304H113.204V40.7319L75.0564 22.0421L39.1433 37.6997ZM76.8725 78.0304H105.229V46.7011L76.8725 37.8207V78.0304Z" fill="white"/>
<path d="M81.8545 105.676V92.4537H87.3769C88.3446 92.4537 89.2303 92.6171 90.0344 92.9448C90.8386 93.2596 91.5298 93.713 92.1076 94.3048C92.6982 94.8967 93.1505 95.5956 93.4647 96.4015C93.7788 97.2074 93.9361 98.095 93.9361 99.0647C93.9361 100.034 93.7788 100.928 93.4647 101.747C93.1505 102.553 92.6982 103.252 92.1076 103.844C91.5298 104.423 90.8386 104.876 90.0344 105.203C89.2303 105.518 88.3446 105.676 87.3769 105.676H81.8545ZM85.0583 103.484L84.625 102.842H87.2825C87.8102 102.842 88.2817 102.754 88.6964 102.578C89.1111 102.389 89.4629 102.131 89.7518 101.803C90.0535 101.476 90.2857 101.08 90.4491 100.613C90.6126 100.148 90.6942 99.6312 90.6942 99.0647C90.6942 98.4981 90.6126 97.9817 90.4491 97.516C90.2857 97.0497 90.0535 96.6532 89.7518 96.326C89.4629 95.9983 89.1111 95.7466 88.6964 95.5703C88.2817 95.3816 87.8102 95.287 87.2825 95.287H84.5683L85.0583 94.6827V103.484ZM101.861 105.864C100.856 105.864 99.9384 105.695 99.1094 105.355C98.28 105.014 97.5573 104.536 96.9414 103.919C96.326 103.302 95.8484 102.578 95.509 101.747C95.1701 100.916 95.0004 100.003 95.0004 99.0079C95.0004 98.0133 95.1701 97.1004 95.509 96.2692C95.8484 95.438 96.326 94.7138 96.9414 94.097C97.5573 93.4799 98.28 93.0012 99.1094 92.6615C99.9384 92.3214 100.849 92.1514 101.842 92.1514C102.835 92.1514 103.746 92.3214 104.575 92.6615C105.405 93.0012 106.127 93.4799 106.743 94.097C107.358 94.7138 107.83 95.438 108.156 96.2692C108.496 97.1004 108.665 98.0133 108.665 99.0079C108.665 99.99 108.496 100.903 108.156 101.747C107.83 102.578 107.358 103.302 106.743 103.919C106.127 104.536 105.405 105.014 104.575 105.355C103.746 105.695 102.841 105.864 101.861 105.864ZM101.842 102.842C102.358 102.842 102.829 102.748 103.256 102.559C103.696 102.37 104.073 102.106 104.387 101.766C104.713 101.413 104.965 101.004 105.14 100.538C105.317 100.072 105.405 99.562 105.405 99.0079C105.405 98.4537 105.317 97.944 105.14 97.4778C104.965 97.012 104.713 96.6093 104.387 96.2692C104.073 95.9166 103.696 95.6458 103.256 95.4571C102.829 95.2679 102.358 95.1738 101.842 95.1738C101.327 95.1738 100.849 95.2679 100.41 95.4571C99.9827 95.6458 99.6056 95.9166 99.2786 96.2692C98.9521 96.6093 98.7009 97.012 98.525 97.4778C98.3615 97.944 98.28 98.4537 98.28 99.0079C98.28 99.562 98.3615 100.078 98.525 100.557C98.7009 101.023 98.9521 101.426 99.2786 101.766C99.6056 102.106 99.9827 102.37 100.41 102.559C100.849 102.748 101.327 102.842 101.842 102.842ZM110.579 105.676V92.4537H113.444L118.25 100.292L116.195 100.273L121.059 92.4537H123.81V105.676H120.701V101.558C120.701 100.425 120.725 99.4048 120.776 98.4981C120.838 97.5914 120.939 96.691 121.077 95.7967L121.436 96.7789L117.779 102.465H116.535L112.954 96.8171L113.312 95.7967C113.45 96.6408 113.544 97.5093 113.595 98.4035C113.658 99.2849 113.689 100.336 113.689 101.558V105.676H110.579ZM132.121 105.789C131.028 105.789 130.054 105.569 129.2 105.128C128.345 104.674 127.673 104.058 127.183 103.277C126.706 102.496 126.467 101.602 126.467 100.595V92.4537H129.709V100.425C129.709 100.903 129.815 101.338 130.029 101.728C130.243 102.106 130.531 102.408 130.896 102.635C131.26 102.849 131.669 102.956 132.121 102.956C132.599 102.956 133.02 102.849 133.384 102.635C133.761 102.408 134.063 102.106 134.289 101.728C134.515 101.338 134.628 100.903 134.628 100.425V92.4537H137.757V100.595C137.757 101.602 137.512 102.496 137.021 103.277C136.544 104.058 135.878 104.674 135.024 105.128C134.169 105.569 133.202 105.789 132.121 105.789ZM140.408 105.676V92.4537H146.232C147.137 92.4537 147.903 92.5861 148.532 92.8502C149.16 93.102 149.631 93.4736 149.945 93.9647C150.272 94.4434 150.435 95.0224 150.435 95.7026C150.435 96.4579 150.247 97.0941 149.87 97.6101C149.505 98.1265 148.971 98.4728 148.267 98.6491L148.23 98.2903C148.82 98.416 149.33 98.6367 149.757 98.9515C150.196 99.2663 150.536 99.6566 150.774 100.122C151.013 100.576 151.132 101.092 151.132 101.671C151.132 102.339 151.019 102.924 150.793 103.428C150.567 103.919 150.24 104.335 149.813 104.674C149.386 105.014 148.883 105.266 148.305 105.43C147.74 105.594 147.112 105.676 146.42 105.676H140.408ZM143.423 102.993H146.307C146.659 102.993 146.954 102.937 147.193 102.823C147.444 102.71 147.639 102.546 147.777 102.332C147.916 102.106 147.985 101.835 147.985 101.52C147.985 101.231 147.909 100.985 147.759 100.783C147.621 100.582 147.419 100.431 147.155 100.33C146.892 100.217 146.578 100.16 146.213 100.16H143.423V102.993ZM143.423 97.7615H145.78C146.106 97.7615 146.383 97.7109 146.609 97.6101C146.847 97.4969 147.023 97.3459 147.137 97.1568C147.262 96.9556 147.325 96.7163 147.325 96.4392C147.325 96.0361 147.187 95.7213 146.91 95.4948C146.634 95.2555 146.219 95.1356 145.667 95.1356H143.423V97.7615ZM159.071 105.864C158.066 105.864 157.148 105.695 156.319 105.355C155.49 105.014 154.767 104.536 154.151 103.919C153.536 103.302 153.058 102.578 152.719 101.747C152.38 100.916 152.21 100.003 152.21 99.0079C152.21 98.0133 152.38 97.1004 152.719 96.2692C153.058 95.438 153.536 94.7138 154.151 94.097C154.767 93.4799 155.49 93.0012 156.319 92.6615C157.148 92.3214 158.059 92.1514 159.052 92.1514C160.045 92.1514 160.956 92.3214 161.785 92.6615C162.615 93.0012 163.337 93.4799 163.953 94.097C164.568 94.7138 165.039 95.438 165.366 96.2692C165.705 97.1004 165.875 98.0133 165.875 99.0079C165.875 99.99 165.705 100.903 165.366 101.747C165.039 102.578 164.568 103.302 163.953 103.919C163.337 104.536 162.615 105.014 161.785 105.355C160.956 105.695 160.051 105.864 159.071 105.864ZM159.052 102.842C159.567 102.842 160.039 102.748 160.466 102.559C160.906 102.37 161.282 102.106 161.596 101.766C161.923 101.413 162.175 101.004 162.35 100.538C162.526 100.072 162.615 99.562 162.615 99.0079C162.615 98.4537 162.526 97.944 162.35 97.4778C162.175 97.012 161.923 96.6093 161.596 96.2692C161.282 95.9166 160.906 95.6458 160.466 95.4571C160.039 95.2679 159.567 95.1738 159.052 95.1738C158.537 95.1738 158.059 95.2679 157.619 95.4571C157.192 95.6458 156.815 95.9166 156.489 96.2692C156.162 96.6093 155.91 97.012 155.735 97.4778C155.571 97.944 155.49 98.4537 155.49 99.0079C155.49 99.562 155.571 100.078 155.735 100.557C155.91 101.023 156.162 101.426 156.489 101.766C156.815 102.106 157.192 102.37 157.619 102.559C158.059 102.748 158.537 102.842 159.052 102.842ZM174.872 105.676L170.782 99.7445L165.543 92.4537H169.444L173.44 98.309L178.774 105.676H174.872ZM165.448 105.676L170.481 98.479L173.063 99.9714L169.162 105.676H165.448ZM173.742 99.5367L171.179 98.1012L174.872 92.4537H178.586L173.742 99.5367Z" fill="white"/>
<path d="M148.542 114.556V113.477H149.431V110.352H148.542V109.272H151.608V110.352H150.712V113.477H151.608V114.556H148.542ZM152.6 114.556V109.272H153.745L155.666 112.405L154.845 112.397L156.788 109.272H157.888V114.556H156.645V112.91C156.645 112.458 156.655 112.05 156.675 111.688C156.7 111.325 156.74 110.966 156.796 110.608L156.939 111.001L155.477 113.273H154.98L153.549 111.016L153.692 110.608C153.747 110.945 153.785 111.292 153.805 111.65C153.83 112.002 153.843 112.422 153.843 112.91V114.556H152.6ZM158.987 114.556V109.272H161.261C161.593 109.272 161.886 109.348 162.142 109.499C162.404 109.65 162.609 109.856 162.76 110.118C162.916 110.379 162.994 110.673 162.994 111.001C162.994 111.343 162.916 111.65 162.76 111.922C162.609 112.188 162.404 112.4 162.142 112.556C161.886 112.711 161.593 112.79 161.261 112.79H160.267V114.556H158.987ZM160.244 111.665H161.08C161.191 111.665 161.291 111.637 161.382 111.582C161.472 111.526 161.545 111.451 161.6 111.355C161.656 111.26 161.683 111.149 161.683 111.023C161.683 110.892 161.656 110.782 161.6 110.691C161.545 110.601 161.472 110.53 161.382 110.48C161.291 110.43 161.191 110.404 161.08 110.404H160.244V111.665ZM166.15 114.631C165.749 114.631 165.382 114.563 165.051 114.428C164.719 114.292 164.431 114.1 164.185 113.854C163.939 113.608 163.748 113.318 163.612 112.986C163.477 112.654 163.409 112.289 163.409 111.891C163.409 111.494 163.477 111.129 163.612 110.797C163.748 110.465 163.939 110.175 164.185 109.929C164.431 109.682 164.719 109.491 165.051 109.355C165.382 109.219 165.746 109.151 166.143 109.151C166.54 109.151 166.904 109.219 167.235 109.355C167.567 109.491 167.855 109.682 168.101 109.929C168.348 110.175 168.536 110.465 168.666 110.797C168.802 111.129 168.87 111.494 168.87 111.891C168.87 112.284 168.802 112.649 168.666 112.986C168.536 113.318 168.348 113.608 168.101 113.854C167.855 114.1 167.567 114.292 167.235 114.428C166.904 114.563 166.542 114.631 166.15 114.631ZM166.143 113.424C166.349 113.424 166.537 113.386 166.708 113.31C166.884 113.235 167.034 113.129 167.16 112.993C167.291 112.853 167.391 112.689 167.461 112.503C167.532 112.317 167.567 112.113 167.567 111.891C167.567 111.67 167.532 111.466 167.461 111.28C167.391 111.094 167.291 110.933 167.16 110.797C167.034 110.656 166.884 110.548 166.708 110.472C166.537 110.397 166.349 110.359 166.143 110.359C165.937 110.359 165.746 110.397 165.571 110.472C165.4 110.548 165.249 110.656 165.119 110.797C164.988 110.933 164.888 111.094 164.817 111.28C164.752 111.466 164.719 111.67 164.719 111.891C164.719 112.113 164.752 112.319 164.817 112.51C164.888 112.696 164.988 112.858 165.119 112.993C165.249 113.129 165.4 113.235 165.571 113.31C165.746 113.386 165.937 113.424 166.143 113.424ZM169.634 114.556V109.272H172.007C172.344 109.272 172.647 109.345 172.918 109.491C173.195 109.637 173.411 109.838 173.566 110.095C173.722 110.347 173.8 110.633 173.8 110.955C173.8 111.288 173.722 111.587 173.566 111.854C173.411 112.115 173.197 112.322 172.926 112.473C172.655 112.624 172.349 112.699 172.007 112.699H170.855V114.556H169.634ZM172.557 114.556L171.216 112.171L172.527 111.982L174.018 114.556H172.557ZM170.855 111.718H171.894C172.025 111.718 172.138 111.69 172.233 111.635C172.334 111.574 172.409 111.491 172.459 111.386C172.514 111.28 172.542 111.159 172.542 111.023C172.542 110.887 172.512 110.769 172.451 110.669C172.391 110.563 172.303 110.483 172.188 110.427C172.077 110.372 171.942 110.344 171.781 110.344H170.855V111.718ZM175.695 114.556V110.404H174.128V109.272H178.58V110.404H176.976V114.556H175.695Z" fill="white"/>
</g>
<defs>
<clipPath id="clip0_2055_247">
<rect width="179" height="115" fill="white"/>
</clipPath>
</defs>
</svg>
