<svg width="96" height="15" viewBox="0 0 96 15" fill="none" xmlns="http://www.w3.org/2000/svg">
<path d="M4.93976 13.5463H0.000177619V0.182689H4.93324C6.29483 0.182689 7.4672 0.450223 8.45033 0.985291C9.43781 1.51601 10.1991 2.28163 10.7342 3.28217C11.2692 4.27835 11.5368 5.47029 11.5368 6.85798C11.5368 8.25003 11.2692 9.44632 10.7342 10.4468C10.2034 11.4474 9.44434 12.2152 8.45685 12.7502C7.46937 13.281 6.29701 13.5463 4.93976 13.5463ZM3.23016 10.7927H4.81579C5.56401 10.7927 6.19696 10.6665 6.71462 10.4142C7.23664 10.1576 7.63033 9.74213 7.89569 9.16791C8.16539 8.58934 8.30025 7.81936 8.30025 6.85798C8.30025 5.8966 8.16539 5.13098 7.89569 4.56111C7.62598 3.98689 7.22794 3.57362 6.70157 3.32132C6.17955 3.06466 5.53573 2.93633 4.77011 2.93633H3.23016V10.7927ZM12.5038 13.5463V0.182689H18.0241C19.0247 0.182689 19.8882 0.36322 20.6146 0.724282C21.3455 1.08099 21.9088 1.59431 22.3047 2.26423C22.7005 2.9298 22.8985 3.71935 22.8985 4.63288C22.8985 5.55946 22.6962 6.34684 22.2916 6.99501C21.887 7.63883 21.3128 8.1304 20.569 8.46971C19.8251 8.80467 18.9442 8.97215 17.9262 8.97215H14.4353V6.42732H17.3259C17.8131 6.42732 18.2199 6.36424 18.5461 6.23809C18.8767 6.10758 19.1269 5.91183 19.2965 5.65082C19.4662 5.38546 19.551 5.04615 19.551 4.63288C19.551 4.21962 19.4662 3.87813 19.2965 3.60843C19.1269 3.33437 18.8767 3.12991 18.5461 2.99506C18.2155 2.85585 17.8088 2.78625 17.3259 2.78625H15.7338V13.5463H12.5038ZM20.0274 7.43873L23.3552 13.5463H19.8316L16.569 7.43873H20.0274ZM36.3645 6.86451C36.3645 8.33486 36.0818 9.58117 35.5163 10.6035C34.9507 11.6257 34.1851 12.4022 33.2194 12.933C32.258 13.4637 31.1792 13.729 29.9829 13.729C28.7822 13.729 27.7012 13.4615 26.7398 12.9264C25.7785 12.3914 25.015 11.6149 24.4495 10.5969C23.8883 9.57465 23.6077 8.33051 23.6077 6.86451C23.6077 5.39416 23.8883 4.14784 24.4495 3.12556C25.015 2.10328 25.7785 1.32678 26.7398 0.796059C27.7012 0.265342 28.7822 -1.71438e-05 29.9829 -1.71438e-05C31.1792 -1.71438e-05 32.258 0.265342 33.2194 0.796059C34.1851 1.32678 34.9507 2.10328 35.5163 3.12556C36.0818 4.14784 36.3645 5.39416 36.3645 6.86451ZM33.0628 6.86451C33.0628 5.99448 32.9388 5.25931 32.6908 4.65899C32.4472 4.05867 32.0949 3.60408 31.6338 3.29522C31.177 2.98636 30.6267 2.83193 29.9829 2.83193C29.3434 2.83193 28.7931 2.98636 28.332 3.29522C27.8709 3.60408 27.5163 4.05867 27.2684 4.65899C27.0248 5.25931 26.903 5.99448 26.903 6.86451C26.903 7.73454 27.0248 8.46971 27.2684 9.07003C27.5163 9.67035 27.8709 10.1249 28.332 10.4338C28.7931 10.7427 29.3434 10.8971 29.9829 10.8971C30.6267 10.8971 31.177 10.7427 31.6338 10.4338C32.0949 10.1249 32.4472 9.67035 32.6908 9.07003C32.9388 8.46971 33.0628 7.73454 33.0628 6.86451ZM49.4619 5.0244H46.1993C46.1558 4.68944 46.0667 4.3871 45.9318 4.11739C45.797 3.84768 45.6186 3.61713 45.3967 3.42572C45.1749 3.23431 44.9117 3.08858 44.6072 2.98853C44.307 2.88413 43.9742 2.83193 43.6088 2.83193C42.9607 2.83193 42.4017 2.99071 41.9319 3.30827C41.4664 3.62583 41.1075 4.08477 40.8552 4.68509C40.6072 5.28541 40.4833 6.01188 40.4833 6.86451C40.4833 7.75194 40.6094 8.49581 40.8617 9.09613C41.1184 9.6921 41.4773 10.1423 41.9384 10.4468C42.4038 10.747 42.9541 10.8971 43.5893 10.8971C43.946 10.8971 44.2701 10.8514 44.5615 10.7601C44.8573 10.6687 45.1162 10.536 45.338 10.362C45.5642 10.1837 45.7491 9.96833 45.8927 9.71603C46.0406 9.45937 46.1428 9.17008 46.1993 8.84817L49.4619 8.86775C49.4054 9.45937 49.2336 10.0423 48.9465 10.6165C48.6637 11.1907 48.2744 11.7149 47.7784 12.1891C47.2825 12.6589 46.6779 13.033 45.9644 13.3114C45.2554 13.5898 44.4419 13.729 43.524 13.729C42.3147 13.729 41.2315 13.4637 40.2744 12.933C39.3218 12.3979 38.5692 11.6192 38.0167 10.5969C37.4643 9.57465 37.188 8.33051 37.188 6.86451C37.188 5.39416 37.4686 4.14784 38.0298 3.12556C38.5909 2.10328 39.35 1.32678 40.3071 0.796059C41.2641 0.265342 42.3364 -1.71438e-05 43.524 -1.71438e-05C44.3331 -1.71438e-05 45.0814 0.113087 45.7687 0.339294C46.456 0.561151 47.0607 0.887412 47.5827 1.31808C48.1047 1.74439 48.5288 2.26858 48.8551 2.89065C49.1814 3.51272 49.3836 4.22397 49.4619 5.0244ZM50.3915 13.5463V0.182689H53.6214V5.54641H58.8873V0.182689H62.1107V13.5463H58.8873V8.17608H53.6214V13.5463H50.3915ZM67.9815 13.7551C67.4725 13.7551 67.0571 13.579 66.7352 13.2266C66.4176 12.8699 66.2849 12.437 66.3371 11.9281C66.3893 11.4322 66.6134 11.008 67.0092 10.6557C67.4094 10.3033 67.864 10.1271 68.373 10.1271C68.8559 10.1271 69.2582 10.3033 69.5802 10.6557C69.9064 11.008 70.0434 11.4322 69.9912 11.9281C69.9564 12.2674 69.8368 12.5762 69.6324 12.8547C69.4323 13.1287 69.1843 13.3484 68.8885 13.5137C68.597 13.6747 68.2947 13.7551 67.9815 13.7551ZM72.7304 14.1527C72.5099 14.0302 72.3874 13.8955 72.3629 13.7485C72.3506 13.6015 72.4364 13.3442 72.6201 12.9767C72.8039 12.6092 73.0917 12.0396 73.4837 11.2678C73.7777 10.7166 73.9737 10.2878 74.0717 9.98158C74.182 9.66308 74.2432 9.43645 74.2555 9.3017C74.2677 9.16695 74.2739 9.0812 74.2739 9.04445C74.2494 8.9342 74.2616 8.84845 74.3106 8.7872C74.3596 8.7137 74.4392 8.65245 74.5495 8.60345C74.6107 8.5422 74.7516 8.43195 74.9721 8.2727C75.1926 8.11345 75.3641 7.92358 75.4866 7.70308C75.5969 7.44583 75.7194 7.18245 75.8541 6.91295C76.0011 6.64345 76.191 6.30658 76.4237 5.90233C76.6565 5.48583 76.9689 4.94683 77.3609 4.28533C77.6059 3.85658 77.8937 3.3727 78.2245 2.8337C78.5675 2.2947 78.9044 1.8047 79.2351 1.3637C79.3699 1.1922 79.5107 1.05745 79.6577 0.95945C79.8047 0.86145 79.9334 0.81245 80.0436 0.81245C80.3131 0.81245 80.5826 0.88595 80.8521 1.03295C81.1216 1.1677 81.3605 1.3392 81.5687 1.54745C81.777 1.7557 81.9179 1.9517 81.9914 2.13545C82.0526 2.23345 82.0771 2.4417 82.0649 2.7602C82.0526 3.0787 82.0281 3.46457 81.9914 3.91782C81.9546 4.37108 81.9117 4.85495 81.8627 5.36945C81.826 5.8717 81.7709 6.46583 81.6974 7.15183C81.6239 7.83783 81.5504 8.55445 81.4769 9.3017C81.4156 10.049 81.3666 10.7717 81.3299 11.47C81.2931 12.156 81.2931 12.7562 81.3299 13.2707C81.3421 13.381 81.3421 13.4851 81.3299 13.5831C81.3176 13.6811 81.3115 13.7607 81.3115 13.822C81.238 13.8955 81.0787 13.9261 80.8337 13.9138C80.5887 13.9138 80.3499 13.8771 80.1171 13.8036C79.8844 13.7301 79.7557 13.6382 79.7312 13.528C79.6945 13.4912 79.67 13.4606 79.6577 13.4361C79.6455 13.4116 79.6455 13.2952 79.6577 13.087C79.67 12.8665 79.6884 12.4683 79.7129 11.8926L79.8047 9.0812L79.5659 9.09958C79.4556 9.09958 79.2535 9.11183 78.9595 9.13633C78.6777 9.16083 78.3654 9.19758 78.0224 9.24658C77.6916 9.28333 77.3854 9.3262 77.1036 9.3752C76.8219 9.41195 76.6259 9.4487 76.5156 9.48545C76.4054 9.48545 76.2706 9.55895 76.1114 9.70595C75.9644 9.85295 75.8235 10.0428 75.6887 10.2756C75.6397 10.4471 75.5479 10.6308 75.4131 10.8268C75.2906 11.0106 75.2294 11.1331 75.2294 11.1943C75.1436 11.2556 75.0701 11.3291 75.0089 11.4148C74.9599 11.5006 74.9354 11.5435 74.9354 11.5435C74.9354 11.617 74.8802 11.8007 74.77 12.0947C74.6597 12.3765 74.525 12.695 74.3657 13.0502C74.2065 13.3932 74.0411 13.6933 73.8696 13.9506L73.3735 14.6488L72.7304 14.1527ZM77.122 7.8317C77.122 7.8317 77.1894 7.81945 77.3241 7.79495C77.4589 7.77045 77.6181 7.74595 77.8019 7.72145C77.9979 7.6847 78.1694 7.66633 78.3164 7.66633C78.5981 7.59283 78.8309 7.5377 79.0146 7.50095C79.2106 7.4642 79.3699 7.44583 79.4924 7.44583C79.6149 7.43358 79.7129 7.44583 79.7864 7.48258C79.8354 7.54383 79.8782 7.58058 79.915 7.59283C79.964 7.60508 79.9885 7.6112 79.9885 7.6112C80.0007 7.5867 80.0252 7.45808 80.062 7.22533C80.0987 6.99258 80.1416 6.7047 80.1906 6.3617C80.2396 6.0187 80.2886 5.66345 80.3376 5.29595C80.3866 4.9162 80.4295 4.56708 80.4662 4.24857C80.503 3.91782 80.5275 3.66057 80.5397 3.47682C80.552 3.24408 80.5459 3.03583 80.5214 2.85208C80.4969 2.65607 80.4846 2.55807 80.4846 2.55807C80.4111 2.55807 80.2702 2.69282 80.062 2.96233C79.866 3.21958 79.6332 3.5687 79.3637 4.0097C79.1065 4.43845 78.8492 4.90395 78.592 5.4062C78.4695 5.63895 78.3531 5.8227 78.2429 5.95745C78.1449 6.0922 78.0652 6.15958 78.004 6.15958C77.9795 6.18408 77.9121 6.28208 77.8019 6.45358C77.7039 6.61283 77.5936 6.79658 77.4711 7.00483C77.3609 7.20083 77.2629 7.38458 77.1771 7.55608C77.1036 7.71533 77.0852 7.8072 77.122 7.8317ZM83.0016 13.0502C82.8913 12.9645 82.7688 12.8542 82.6341 12.7195C82.5116 12.5847 82.4687 12.3948 82.5054 12.1498C82.5422 11.8068 82.5912 11.5067 82.6524 11.2495C82.7137 10.98 82.7872 10.6737 82.8729 10.3307C82.8974 10.1837 82.9587 9.93258 83.0567 9.57733C83.1669 9.22208 83.2956 8.8362 83.4426 8.4197C83.5896 8.0032 83.7427 7.6112 83.9019 7.2437C84.0612 6.86395 84.2021 6.5822 84.3246 6.39845C84.4593 6.27595 84.6553 6.2147 84.9126 6.2147C85.1821 6.2147 85.3658 6.2637 85.4638 6.3617C85.5986 6.47195 85.6414 6.66795 85.5924 6.9497C85.5434 7.2192 85.3719 7.64183 85.0779 8.21758C85.0167 8.36458 84.9371 8.52383 84.8391 8.69533C84.7533 8.85458 84.6921 8.98933 84.6553 9.09958C84.6186 9.19758 84.6308 9.24045 84.6921 9.2282C84.7656 9.09345 84.9003 8.94033 85.0963 8.76883C85.2923 8.58508 85.5006 8.40745 85.7211 8.23595C85.9416 8.06445 86.1498 7.91133 86.3458 7.77658C86.5418 7.64183 86.6766 7.55608 86.7501 7.51933C86.8481 7.45808 86.9583 7.40908 87.0808 7.37233C87.2156 7.32333 87.3074 7.28658 87.3564 7.26208C87.6382 7.12733 87.9444 7.07833 88.2752 7.11508C88.6182 7.13958 88.8264 7.2437 88.8999 7.42745C88.9122 7.52545 88.9489 7.59895 89.0102 7.64795C89.0837 7.69695 89.1204 7.72145 89.1204 7.72145C89.1694 7.72145 89.1939 7.73983 89.1939 7.77658C89.2062 7.81333 89.2123 7.8317 89.2123 7.8317C89.2123 7.91745 89.1266 8.03995 88.9551 8.1992C88.7958 8.35845 88.6182 8.4442 88.4222 8.45645C88.2629 8.4687 88.1221 8.49933 87.9996 8.54833C87.8771 8.59733 87.7301 8.65858 87.5586 8.73208C87.0931 9.00158 86.6704 9.24045 86.2907 9.4487C85.9232 9.65695 85.5434 9.97545 85.1514 10.4042C85.0657 10.5022 84.9738 10.5941 84.8758 10.6798C84.7778 10.7656 84.6798 10.8881 84.5818 11.0473C84.5206 11.1086 84.4593 11.2433 84.3981 11.4516C84.3368 11.6598 84.2817 11.862 84.2327 12.058C84.1959 12.2417 84.1776 12.352 84.1776 12.3887C84.1776 12.3887 84.1592 12.45 84.1224 12.5725C84.0857 12.6827 84.0244 12.793 83.9387 12.9032C83.7917 13.0992 83.6447 13.2217 83.4977 13.2707C83.3629 13.3197 83.1976 13.2462 83.0016 13.0502ZM91.6627 13.6566C91.4912 13.6076 91.3197 13.5218 91.1482 13.3993C90.9767 13.2768 90.799 13.136 90.6153 12.9767C90.4683 12.7807 90.3642 12.6031 90.3029 12.4438C90.2417 12.2723 90.2049 12.0763 90.1927 11.8558C90.1927 11.6231 90.1927 11.3291 90.1927 10.9738C90.1927 10.8268 90.2172 10.6186 90.2662 10.3491C90.3274 10.0796 90.3887 9.79783 90.4499 9.50383C90.5234 9.20983 90.5908 8.95258 90.652 8.73208C90.7133 8.49933 90.75 8.3462 90.7623 8.2727C90.799 8.11345 90.7378 8.02158 90.5785 7.99708C90.4193 7.97258 90.2417 7.96645 90.0457 7.9787C89.8619 7.9787 89.7394 7.96033 89.6782 7.92358C89.6292 7.91133 89.6047 7.85008 89.6047 7.73983C89.6047 7.61733 89.6047 7.55608 89.6047 7.55608C89.6047 7.50708 89.5802 7.47645 89.5312 7.4642C89.4822 7.4397 89.4393 7.39683 89.4025 7.33558C89.378 7.28658 89.4087 7.1947 89.4944 7.05995C89.5802 6.9252 89.6904 6.84558 89.8252 6.82108C89.9354 6.79658 90.1008 6.7782 90.3213 6.76595C90.5418 6.74145 90.7623 6.69858 90.9828 6.63733C91.2155 6.56383 91.3932 6.45358 91.5157 6.30658C91.6259 6.03708 91.7484 5.7492 91.8832 5.44295C92.0179 5.12445 92.1465 4.84883 92.269 4.61608C92.3915 4.37107 92.4773 4.21795 92.5263 4.1567C92.7345 4.04645 92.9489 4.00358 93.1694 4.02808C93.3899 4.04033 93.5614 4.14445 93.6839 4.34045C93.7452 4.4262 93.7942 4.48745 93.8309 4.5242C93.8799 4.56095 93.8983 4.61608 93.886 4.68958C93.886 4.76308 93.837 4.89783 93.739 5.09383C93.6533 5.27758 93.5063 5.56545 93.298 5.95745C93.2368 6.07995 93.1817 6.1902 93.1327 6.2882C93.0837 6.37395 93.0592 6.41683 93.0592 6.41683C93.1082 6.42908 93.1817 6.4352 93.2797 6.4352C93.3777 6.4352 93.5002 6.42908 93.6472 6.41683C93.7819 6.39233 93.9289 6.37395 94.0882 6.3617C94.2474 6.3372 94.3883 6.3372 94.5108 6.3617C94.7925 6.3617 95.0008 6.44133 95.1355 6.60058C95.2703 6.75983 95.3438 6.96195 95.356 7.20695C95.3805 7.3417 95.3315 7.45808 95.209 7.55608C95.0865 7.65408 94.8599 7.70308 94.5292 7.70308C94.4189 7.70308 94.2597 7.7092 94.0514 7.72145C93.8432 7.7337 93.6288 7.74595 93.4083 7.7582C93.1878 7.77045 92.9979 7.78883 92.8387 7.81333C92.6917 7.82558 92.6182 7.84395 92.6182 7.86845C92.5814 7.89295 92.5202 7.99095 92.4344 8.16245C92.3609 8.3217 92.2813 8.5177 92.1955 8.75045C92.122 8.9832 92.0547 9.2037 91.9934 9.41195C91.9077 9.82845 91.8464 10.2327 91.8097 10.6247C91.7729 11.0167 91.7668 11.3597 91.7913 11.6537C91.828 11.9355 91.9015 12.1376 92.0118 12.2601C92.122 12.3703 92.2874 12.3703 92.5079 12.2601C92.7407 12.1376 92.955 11.9967 93.151 11.8375C93.3715 11.6537 93.5614 11.5986 93.7207 11.6721C93.8799 11.7333 93.9779 11.8681 94.0147 12.0763C94.0637 12.2723 94.0085 12.4867 93.8493 12.7195C93.7023 12.9522 93.494 13.1482 93.2245 13.3075C92.955 13.4667 92.6794 13.577 92.3977 13.6382C92.1159 13.7117 91.8709 13.7178 91.6627 13.6566Z" fill="#121212"/>
</svg>
