<svg width="42" height="54" viewBox="0 0 42 54" fill="none" xmlns="http://www.w3.org/2000/svg">
<path d="M6.34776 16.7087C6.42051 17.4359 6.73037 18.1763 6.92262 18.8758C7.50303 20.9877 7.97483 23.1252 8.6472 25.2116C8.97567 26.2309 9.29775 27.2735 9.72872 28.2554C9.98326 28.8353 10.3847 29.7138 11.0831 29.8673C12.7331 30.2302 12.6606 26.337 12.7053 25.5428C12.8778 22.4778 12.9123 19.2961 12.3984 16.2606C12.0247 14.0532 11.3349 11.3911 9.85051 9.63746C8.33938 7.85221 7.00492 10.0863 6.34776 11.4783C4.85413 14.6423 4.19044 18.0902 4.36985 21.5786C4.43647 22.8739 4.60517 24.2429 5.17368 25.4259C5.5187 26.1439 6.24907 27.0398 7.14185 26.9941C7.95047 26.9526 8.6741 26.1598 9.13437 25.572C10.204 24.2062 10.9457 22.5494 11.6189 20.965C13.125 17.4207 13.9334 13.5902 14.4494 9.78843C14.636 8.41338 14.8114 7.03491 14.7563 5.64408C14.7307 4.99657 14.6622 4.20884 14.3276 3.63278C13.8206 2.75995 13.7144 5.38877 13.7138 5.5272C13.6984 8.83267 13.9823 12.04 14.5127 15.3061C15.3908 20.7129 16.5252 26.0979 17.6209 31.4647C18.2925 34.7544 18.8337 38.0691 19.589 41.341" stroke="#333333" stroke-width="2" stroke-linecap="round"/>
<path d="M15.2045 20.3027C15.1763 20.5846 14.8098 21.2259 14.7709 20.5852C14.6685 18.896 14.7574 16.9885 15.3896 15.4084C15.5547 14.9957 15.9598 14.0211 16.5394 14.0302C17.0866 14.0387 17.3669 14.8205 17.4796 15.2428C17.9982 17.187 17.2955 19.4974 16.3396 21.2036C15.9815 21.8429 14.842 23.6311 13.8161 23.0542C13.3276 22.7796 14.1569 22.0853 14.464 22.0608C15.2591 21.9972 16.1256 22.8321 16.8414 23.1127C17.9616 23.5518 19.0425 23.936 20.0178 23.0153C20.8665 22.214 20.9974 21.0155 20.8849 19.9034C20.8636 19.6926 20.3539 18.6128 20.1347 19.2703C19.9169 19.9232 20.2644 20.9609 20.3783 21.6079C20.5996 22.8656 20.8511 24.2596 21.7131 25.2603C22.4931 26.1658 23.3037 25.9566 23.6715 24.822C24.2483 23.043 24.0601 20.7446 23.7105 18.9488C23.5561 18.1557 23.1719 14.8647 21.6546 15.3645C20.8381 15.6335 20.4712 16.6053 20.3003 17.3661C19.9106 19.1014 20.0565 20.9104 20.1152 22.6695" stroke="#333333" stroke-width="2" stroke-linecap="round"/>
<path d="M27.1304 16.2704C27.1116 16.1198 26.9019 15.8789 26.8235 15.7396C26.6062 15.3533 26.4752 14.8084 26.0781 14.5659C25.7312 14.3539 25.2944 14.6987 25.0746 14.975C24.5532 15.6301 24.4558 16.6062 24.3243 17.41C24.141 18.5312 24.1657 19.6178 24.2854 20.7459C24.4159 21.976 24.4429 23.5079 25.1184 24.5883C25.6386 25.4202 26.3966 25.0376 26.9551 24.4714C27.9174 23.4957 28.0625 21.9386 27.9196 20.6534" stroke="#333333" stroke-width="2" stroke-linecap="round"/>
<path d="M27.6566 9.60824C27.505 11.1231 27.5499 12.6783 27.676 14.2055C28.0899 19.2181 28.9549 24.1608 29.4981 29.1563" stroke="#333333" stroke-width="2" stroke-linecap="round"/>
<path d="M31.1642 9.34527C31.1195 9.30615 31.2392 11.6432 31.2519 11.8387C31.5982 17.1667 31.8719 22.4539 32.5672 27.7538" stroke="#333333" stroke-width="2" stroke-linecap="round"/>
<path d="M27.9196 18.1989C27.7684 18.35 27.6295 18.4053 27.525 18.5933C27.3736 18.8658 28.2761 18.659 28.3776 18.6372C29.2096 18.4582 30.0585 18.351 30.8865 18.155C31.0927 18.1062 31.6653 17.8106 31.6026 17.9359" stroke="#333333" stroke-width="2" stroke-linecap="round"/>
<path d="M34.5841 22.4942C34.5659 22.3481 34.4417 22.2801 34.4039 22.4504C34.3607 22.6444 34.3418 22.8172 34.4575 23.0153C34.655 23.3537 35.0194 22.3864 34.7157 22.1436C34.2513 21.7722 34.249 22.7564 34.4087 23.0007C34.914 23.7732 34.88 22.0452 34.6718 22.6695" stroke="#333333" stroke-width="2" stroke-linecap="round"/>
<path d="M9.32924 47.3895C9.50405 47.3677 9.51047 47.0542 9.55821 46.9269C10.0246 45.6837 10.482 44.437 10.9418 43.1916C11.6031 41.4003 12.0923 39.5009 12.4666 37.6301C12.8715 35.6063 13.2909 33.4883 13.4312 31.4258C13.4476 31.1853 13.6537 29.4505 13.4069 29.3024C13.2944 29.235 13.4416 31.0583 13.4556 31.1384C13.8407 33.352 14.102 35.5389 14.7368 37.708C16.2634 42.9238 18.2274 47.9781 20.2906 52.9998" stroke="#333333" stroke-width="2" stroke-linecap="round"/>
<path d="M19.7644 44.9351C19.7349 45.1713 19.658 44.7798 19.6329 44.7597C19.5393 44.6849 19.4913 44.319 19.4526 44.2143C19.1974 43.5239 19.1057 42.7695 18.9801 42.0472C18.7559 40.7585 18.2345 38.8612 18.9752 37.6496C19.6623 36.5257 21.1717 37.4273 21.7813 38.0976" stroke="#333333" stroke-width="2" stroke-linecap="round"/>
<path d="M5.55855 32.7504C6.64625 33.8377 7.68025 34.9711 8.89079 35.9256C11.3948 37.8998 14.3756 38.6298 17.5478 38.5992C21.9638 38.5565 26.3241 37.1981 30.034 34.825C34.0025 32.2863 37.6366 28.2864 38.7494 23.6143C39.7826 19.2765 39.0828 14.4755 37.0833 10.5092C34.5775 5.53839 29.4631 2.17893 24.0125 1.27082C17.7512 0.227633 10.6809 2.21965 6.2211 6.82747C0.703413 12.5283 0.0702749 20.7579 1.96323 28.1044" stroke="#333333" stroke-width="2" stroke-linecap="round"/>
<path d="M23.6228 30.7342C23.1729 30.7904 23.4377 34.1053 23.4279 34.4256C23.3659 36.4647 23.3791 38.4576 23.6618 40.4839C23.936 42.4498 24.3625 44.3944 24.7628 46.3376" stroke="#333333" stroke-width="2" stroke-linecap="round"/>
<path d="M35.8995 5.48824C37.5425 6.94817 38.15 8.7635 38.7933 10.8355" stroke="#333333" stroke-width="2" stroke-linecap="round"/>
<path d="M40.1086 8.81929C40.1356 9.08892 40.3066 9.37519 40.3766 9.63745C40.6618 10.7065 40.749 11.752 40.8102 12.8516" stroke="#333333" stroke-width="2" stroke-linecap="round"/>
</svg>
